<?xml version="1.0" encoding="UTF-8" standalone="no"?>
<!DOCTYPE svg PUBLIC "-//W3C//DTD SVG 1.1//EN"
 "http://www.w3.org/Graphics/SVG/1.1/DTD/svg11.dtd">
<!-- Generated by graphviz version 2.44.0 (20200408.0750)
 -->
<!-- Title: dependency&#45;cruiser output Pages: 1 -->
<svg width="351pt" height="775pt"
 viewBox="0.00 0.00 350.52 775.00" xmlns="http://www.w3.org/2000/svg" xmlns:xlink="http://www.w3.org/1999/xlink">
<g id="graph0" class="graph" transform="scale(1 1) rotate(0) translate(4 771)">
<title>dependency&#45;cruiser output</title>
<polygon fill="white" stroke="transparent" points="-4,4 -4,-771 346.52,-771 346.52,4 -4,4"/>
<g id="clust1" class="cluster">
<title>cluster_src</title>
<path fill="#ffffff" stroke="black" stroke-width="2" d="M20,-8C20,-8 322.52,-8 322.52,-8 328.52,-8 334.52,-14 334.52,-20 334.52,-20 334.52,-747 334.52,-747 334.52,-753 328.52,-759 322.52,-759 322.52,-759 20,-759 20,-759 14,-759 8,-753 8,-747 8,-747 8,-20 8,-20 8,-14 14,-8 20,-8"/>
<text text-anchor="middle" x="171.26" y="-746.9" font-family="Helvetica,sans-Serif" font-weight="bold" font-size="9.00">src</text>
</g>
<g id="clust2" class="cluster">
<title>cluster_src/deep&#45;flat</title>
<path fill="#ffffff" stroke="black" stroke-width="2" d="M42,-583C42,-583 300.52,-583 300.52,-583 306.52,-583 312.52,-589 312.52,-595 312.52,-595 312.52,-720 312.52,-720 312.52,-726 306.52,-732 300.52,-732 300.52,-732 42,-732 42,-732 36,-732 30,-726 30,-720 30,-720 30,-595 30,-595 30,-589 36,-583 42,-583"/>
<text text-anchor="middle" x="171.26" y="-719.9" font-family="Helvetica,sans-Serif" font-weight="bold" font-size="9.00">deep&#45;flat</text>
</g>
<g id="clust3" class="cluster">
<title>cluster_src/deep&#45;flat/template&#45;deep&#45;flat</title>
<path fill="#ffffff" stroke="black" stroke-width="2" d="M50,-652C50,-652 292.52,-652 292.52,-652 298.52,-652 304.52,-658 304.52,-664 304.52,-664 304.52,-693 304.52,-693 304.52,-699 298.52,-705 292.52,-705 292.52,-705 50,-705 50,-705 44,-705 38,-699 38,-693 38,-693 38,-664 38,-664 38,-658 44,-652 50,-652"/>
<text text-anchor="middle" x="171.26" y="-692.9" font-family="Helvetica,sans-Serif" font-weight="bold" font-size="9.00">template&#45;deep&#45;flat</text>
</g>
<g id="clust4" class="cluster">
<title>cluster_src/deep&#45;flat/template&#45;solution</title>
<path fill="#ffffff" stroke="black" stroke-width="2" d="M67,-591C67,-591 275.52,-591 275.52,-591 281.52,-591 287.52,-597 287.52,-603 287.52,-603 287.52,-632 287.52,-632 287.52,-638 281.52,-644 275.52,-644 275.52,-644 67,-644 67,-644 61,-644 55,-638 55,-632 55,-632 55,-603 55,-603 55,-597 61,-591 67,-591"/>
<text text-anchor="middle" x="171.26" y="-631.9" font-family="Helvetica,sans-Serif" font-weight="bold" font-size="9.00">template&#45;solution</text>
</g>
<g id="clust5" class="cluster">
<title>cluster_src/difference</title>
<path fill="#ffffff" stroke="black" stroke-width="2" d="M28,-365C28,-365 314.52,-365 314.52,-365 320.52,-365 326.52,-371 326.52,-377 326.52,-377 326.52,-563 326.52,-563 326.52,-569 320.52,-575 314.52,-575 314.52,-575 28,-575 28,-575 22,-575 16,-569 16,-563 16,-563 16,-377 16,-377 16,-371 22,-365 28,-365"/>
<text text-anchor="middle" x="171.26" y="-562.9" font-family="Helvetica,sans-Serif" font-weight="bold" font-size="9.00">difference</text>
</g>
<g id="clust6" class="cluster">
<title>cluster_src/difference/difference&#45;moamin</title>
<path fill="#ffffff" stroke="black" stroke-width="2" d="M64.75,-495C64.75,-495 277.77,-495 277.77,-495 283.77,-495 289.77,-501 289.77,-507 289.77,-507 289.77,-536 289.77,-536 289.77,-542 283.77,-548 277.77,-548 277.77,-548 64.75,-548 64.75,-548 58.75,-548 52.75,-542 52.75,-536 52.75,-536 52.75,-507 52.75,-507 52.75,-501 58.75,-495 64.75,-495"/>
<text text-anchor="middle" x="171.26" y="-535.9" font-family="Helvetica,sans-Serif" font-weight="bold" font-size="9.00">difference&#45;moamin</text>
</g>
<g id="clust7" class="cluster">
<title>cluster_src/difference/difference&#45;tatsiana</title>
<path fill="#ffffff" stroke="black" stroke-width="2" d="M36,-434C36,-434 306.52,-434 306.52,-434 312.52,-434 318.52,-440 318.52,-446 318.52,-446 318.52,-475 318.52,-475 318.52,-481 312.52,-487 306.52,-487 306.52,-487 36,-487 36,-487 30,-487 24,-481 24,-475 24,-475 24,-446 24,-446 24,-440 30,-434 36,-434"/>
<text text-anchor="middle" x="171.26" y="-474.9" font-family="Helvetica,sans-Serif" font-weight="bold" font-size="9.00">difference&#45;tatsiana</text>
</g>
<g id="clust8" class="cluster">
<title>cluster_src/difference/template&#45;solution&#45;Moamin</title>
<path fill="#ffffff" stroke="black" stroke-width="2" d="M64.75,-373C64.75,-373 277.77,-373 277.77,-373 283.77,-373 289.77,-379 289.77,-385 289.77,-385 289.77,-414 289.77,-414 289.77,-420 283.77,-426 277.77,-426 277.77,-426 64.75,-426 64.75,-426 58.75,-426 52.75,-420 52.75,-414 52.75,-414 52.75,-385 52.75,-385 52.75,-379 58.75,-373 64.75,-373"/>
<text text-anchor="middle" x="171.26" y="-413.9" font-family="Helvetica,sans-Serif" font-weight="bold" font-size="9.00">template&#45;solution&#45;Moamin</text>
</g>
<g id="clust9" class="cluster">
<title>cluster_src/intersection</title>
<path fill="#ffffff" stroke="black" stroke-width="2" d="M53.5,-269C53.5,-269 289.02,-269 289.02,-269 295.02,-269 301.02,-275 301.02,-281 301.02,-281 301.02,-345 301.02,-345 301.02,-351 295.02,-357 289.02,-357 289.02,-357 53.5,-357 53.5,-357 47.5,-357 41.5,-351 41.5,-345 41.5,-345 41.5,-281 41.5,-281 41.5,-275 47.5,-269 53.5,-269"/>
<text text-anchor="middle" x="171.26" y="-344.9" font-family="Helvetica,sans-Serif" font-weight="bold" font-size="9.00">intersection</text>
</g>
<g id="clust10" class="cluster">
<title>cluster_src/intersection/template&#45;solution</title>
<path fill="#ffffff" stroke="black" stroke-width="2" d="M61.5,-277C61.5,-277 281.02,-277 281.02,-277 287.02,-277 293.02,-283 293.02,-289 293.02,-289 293.02,-318 293.02,-318 293.02,-324 287.02,-330 281.02,-330 281.02,-330 61.5,-330 61.5,-330 55.5,-330 49.5,-324 49.5,-318 49.5,-318 49.5,-289 49.5,-289 49.5,-283 55.5,-277 61.5,-277"/>
<text text-anchor="middle" x="171.26" y="-317.9" font-family="Helvetica,sans-Serif" font-weight="bold" font-size="9.00">template&#45;solution</text>
</g>
<g id="clust11" class="cluster">
<title>cluster_src/sort&#45;numbers</title>
<path fill="#ffffff" stroke="black" stroke-width="2" d="M50,-173C50,-173 292.52,-173 292.52,-173 298.52,-173 304.52,-179 304.52,-185 304.52,-185 304.52,-249 304.52,-249 304.52,-255 298.52,-261 292.52,-261 292.52,-261 50,-261 50,-261 44,-261 38,-255 38,-249 38,-249 38,-185 38,-185 38,-179 44,-173 50,-173"/>
<text text-anchor="middle" x="171.26" y="-248.9" font-family="Helvetica,sans-Serif" font-weight="bold" font-size="9.00">sort&#45;numbers</text>
</g>
<g id="clust12" class="cluster">
<title>cluster_src/sort&#45;numbers/example&#45;built&#45;in&#45;sort</title>
<path fill="#ffffff" stroke="black" stroke-width="2" d="M58,-181C58,-181 284.52,-181 284.52,-181 290.52,-181 296.52,-187 296.52,-193 296.52,-193 296.52,-222 296.52,-222 296.52,-228 290.52,-234 284.52,-234 284.52,-234 58,-234 58,-234 52,-234 46,-228 46,-222 46,-222 46,-193 46,-193 46,-187 52,-181 58,-181"/>
<text text-anchor="middle" x="171.26" y="-221.9" font-family="Helvetica,sans-Serif" font-weight="bold" font-size="9.00">example&#45;built&#45;in&#45;sort</text>
</g>
<g id="clust13" class="cluster">
<title>cluster_src/split&#45;object</title>
<path fill="#ffffff" stroke="black" stroke-width="2" d="M55,-16C55,-16 287.52,-16 287.52,-16 293.52,-16 299.52,-22 299.52,-28 299.52,-28 299.52,-153 299.52,-153 299.52,-159 293.52,-165 287.52,-165 287.52,-165 55,-165 55,-165 49,-165 43,-159 43,-153 43,-153 43,-28 43,-28 43,-22 49,-16 55,-16"/>
<text text-anchor="middle" x="171.26" y="-152.9" font-family="Helvetica,sans-Serif" font-weight="bold" font-size="9.00">split&#45;object</text>
</g>
<g id="clust14" class="cluster">
<title>cluster_src/split&#45;object/split&#45;object&#45;deepa</title>
<path fill="#ffffff" stroke="black" stroke-width="2" d="M63,-85C63,-85 279.52,-85 279.52,-85 285.52,-85 291.52,-91 291.52,-97 291.52,-97 291.52,-126 291.52,-126 291.52,-132 285.52,-138 279.52,-138 279.52,-138 63,-138 63,-138 57,-138 51,-132 51,-126 51,-126 51,-97 51,-97 51,-91 57,-85 63,-85"/>
<text text-anchor="middle" x="171.26" y="-125.9" font-family="Helvetica,sans-Serif" font-weight="bold" font-size="9.00">split&#45;object&#45;deepa</text>
</g>
<g id="clust15" class="cluster">
<title>cluster_src/split&#45;object/template&#45;solution</title>
<path fill="#ffffff" stroke="black" stroke-width="2" d="M63.5,-24C63.5,-24 279.02,-24 279.02,-24 285.02,-24 291.02,-30 291.02,-36 291.02,-36 291.02,-65 291.02,-65 291.02,-71 285.02,-77 279.02,-77 279.02,-77 63.5,-77 63.5,-77 57.5,-77 51.5,-71 51.5,-65 51.5,-65 51.5,-36 51.5,-36 51.5,-30 57.5,-24 63.5,-24"/>
<text text-anchor="middle" x="171.26" y="-64.9" font-family="Helvetica,sans-Serif" font-weight="bold" font-size="9.00">template&#45;solution</text>
</g>
<!-- src/deep&#45;flat/template&#45;deep&#45;flat/solution&#45;deep&#45;flat.js -->
<g id="node1" class="node">
<title>src/deep&#45;flat/template&#45;deep&#45;flat/solution&#45;deep&#45;flat.js</title>
<g id="a_node1"><a xlink:href="../src/deep-flat/template-deep-flat/solution-deep-flat.js" xlink:title="solution&#45;deep&#45;flat.js">
<path fill="#ffffcc" stroke="black" d="M290.33,-678.3C290.33,-678.3 208.71,-678.3 208.71,-678.3 205.61,-678.3 202.51,-675.2 202.51,-672.1 202.51,-672.1 202.51,-665.9 202.51,-665.9 202.51,-662.8 205.61,-659.7 208.71,-659.7 208.71,-659.7 290.33,-659.7 290.33,-659.7 293.43,-659.7 296.53,-662.8 296.53,-665.9 296.53,-665.9 296.53,-672.1 296.53,-672.1 296.53,-675.2 293.43,-678.3 290.33,-678.3"/>
<text text-anchor="middle" x="249.52" y="-666.3" font-family="Helvetica,sans-Serif" font-size="9.00">solution&#45;deep&#45;flat.js</text>
</a>
</g>
</g>
<!-- src/deep&#45;flat/template&#45;deep&#45;flat/solution&#45;deep&#45;flat.spec.js -->
<g id="node2" class="node">
<title>src/deep&#45;flat/template&#45;deep&#45;flat/solution&#45;deep&#45;flat.spec.js</title>
<g id="a_node2"><a xlink:href="../src/deep-flat/template-deep-flat/solution-deep-flat.spec.js" xlink:title="solution&#45;deep&#45;flat.spec.js">
<path fill="#ffffcc" stroke="black" d="M155.08,-678.3C155.08,-678.3 52.44,-678.3 52.44,-678.3 49.34,-678.3 46.24,-675.2 46.24,-672.1 46.24,-672.1 46.24,-665.9 46.24,-665.9 46.24,-662.8 49.34,-659.7 52.44,-659.7 52.44,-659.7 155.08,-659.7 155.08,-659.7 158.18,-659.7 161.28,-662.8 161.28,-665.9 161.28,-665.9 161.28,-672.1 161.28,-672.1 161.28,-675.2 158.18,-678.3 155.08,-678.3"/>
<text text-anchor="middle" x="103.76" y="-666.3" font-family="Helvetica,sans-Serif" font-size="9.00">solution&#45;deep&#45;flat.spec.js</text>
</a>
</g>
</g>
<!-- src/deep&#45;flat/template&#45;deep&#45;flat/solution&#45;deep&#45;flat.spec.js&#45;&gt;src/deep&#45;flat/template&#45;deep&#45;flat/solution&#45;deep&#45;flat.js -->
<g id="edge1" class="edge">
<title>src/deep&#45;flat/template&#45;deep&#45;flat/solution&#45;deep&#45;flat.spec.js&#45;&gt;src/deep&#45;flat/template&#45;deep&#45;flat/solution&#45;deep&#45;flat.js</title>
<path fill="none" stroke="#000000" stroke-width="2" stroke-opacity="0.200000" d="M161.58,-669C172.97,-669 184.88,-669 196.12,-669"/>
<polygon fill="#000000" fill-opacity="0.200000" stroke="#000000" stroke-width="2" stroke-opacity="0.200000" points="196.28,-671.1 202.28,-669 196.28,-666.9 196.28,-671.1"/>
</g>
<!-- src/deep&#45;flat/template&#45;solution/deepFlat.js -->
<g id="node3" class="node">
<title>src/deep&#45;flat/template&#45;solution/deepFlat.js</title>
<g id="a_node3"><a xlink:href="../src/deep-flat/template-solution/deepFlat.js" xlink:title="deepFlat.js">
<path fill="#ffffcc" stroke="black" d="M273.33,-617.3C273.33,-617.3 225.71,-617.3 225.71,-617.3 222.61,-617.3 219.51,-614.2 219.51,-611.1 219.51,-611.1 219.51,-604.9 219.51,-604.9 219.51,-601.8 222.61,-598.7 225.71,-598.7 225.71,-598.7 273.33,-598.7 273.33,-598.7 276.43,-598.7 279.53,-601.8 279.53,-604.9 279.53,-604.9 279.53,-611.1 279.53,-611.1 279.53,-614.2 276.43,-617.3 273.33,-617.3"/>
<text text-anchor="middle" x="249.52" y="-605.3" font-family="Helvetica,sans-Serif" font-size="9.00">deepFlat.js</text>
</a>
</g>
</g>
<!-- src/deep&#45;flat/template&#45;solution/deepFlat.spec.js -->
<g id="node4" class="node">
<title>src/deep&#45;flat/template&#45;solution/deepFlat.spec.js</title>
<g id="a_node4"><a xlink:href="../src/deep-flat/template-solution/deepFlat.spec.js" xlink:title="deepFlat.spec.js">
<path fill="#ffffcc" stroke="black" d="M138.08,-617.3C138.08,-617.3 69.44,-617.3 69.44,-617.3 66.34,-617.3 63.24,-614.2 63.24,-611.1 63.24,-611.1 63.24,-604.9 63.24,-604.9 63.24,-601.8 66.34,-598.7 69.44,-598.7 69.44,-598.7 138.08,-598.7 138.08,-598.7 141.18,-598.7 144.28,-601.8 144.28,-604.9 144.28,-604.9 144.28,-611.1 144.28,-611.1 144.28,-614.2 141.18,-617.3 138.08,-617.3"/>
<text text-anchor="middle" x="103.76" y="-605.3" font-family="Helvetica,sans-Serif" font-size="9.00">deepFlat.spec.js</text>
</a>
</g>
</g>
<!-- src/deep&#45;flat/template&#45;solution/deepFlat.spec.js&#45;&gt;src/deep&#45;flat/template&#45;solution/deepFlat.js -->
<g id="edge2" class="edge">
<title>src/deep&#45;flat/template&#45;solution/deepFlat.spec.js&#45;&gt;src/deep&#45;flat/template&#45;solution/deepFlat.js</title>
<path fill="none" stroke="#000000" stroke-width="2" stroke-opacity="0.200000" d="M144.42,-608C166.06,-608 192.6,-608 213.47,-608"/>
<polygon fill="#000000" fill-opacity="0.200000" stroke="#000000" stroke-width="2" stroke-opacity="0.200000" points="213.47,-610.1 219.47,-608 213.47,-605.9 213.47,-610.1"/>
</g>
<!-- src/difference/difference&#45;moamin/difference.js -->
<g id="node5" class="node">
<title>src/difference/difference&#45;moamin/difference.js</title>
<g id="a_node5"><a xlink:href="../src/difference/difference-moamin/difference.js" xlink:title="difference.js">
<path fill="#ffffcc" stroke="black" d="M275.33,-521.3C275.33,-521.3 223.71,-521.3 223.71,-521.3 220.61,-521.3 217.51,-518.2 217.51,-515.1 217.51,-515.1 217.51,-508.9 217.51,-508.9 217.51,-505.8 220.61,-502.7 223.71,-502.7 223.71,-502.7 275.33,-502.7 275.33,-502.7 278.43,-502.7 281.53,-505.8 281.53,-508.9 281.53,-508.9 281.53,-515.1 281.53,-515.1 281.53,-518.2 278.43,-521.3 275.33,-521.3"/>
<text text-anchor="middle" x="249.52" y="-509.3" font-family="Helvetica,sans-Serif" font-size="9.00">difference.js</text>
</a>
</g>
</g>
<!-- src/difference/difference&#45;moamin/difference.spec.js -->
<g id="node6" class="node">
<title>src/difference/difference&#45;moamin/difference.spec.js</title>
<g id="a_node6"><a xlink:href="../src/difference/difference-moamin/difference.spec.js" xlink:title="difference.spec.js">
<path fill="#ffffcc" stroke="black" d="M140.57,-521.3C140.57,-521.3 66.94,-521.3 66.94,-521.3 63.84,-521.3 60.74,-518.2 60.74,-515.1 60.74,-515.1 60.74,-508.9 60.74,-508.9 60.74,-505.8 63.84,-502.7 66.94,-502.7 66.94,-502.7 140.57,-502.7 140.57,-502.7 143.67,-502.7 146.77,-505.8 146.77,-508.9 146.77,-508.9 146.77,-515.1 146.77,-515.1 146.77,-518.2 143.67,-521.3 140.57,-521.3"/>
<text text-anchor="middle" x="103.76" y="-509.3" font-family="Helvetica,sans-Serif" font-size="9.00">difference.spec.js</text>
</a>
</g>
</g>
<!-- src/difference/difference&#45;moamin/difference.spec.js&#45;&gt;src/difference/difference&#45;moamin/difference.js -->
<g id="edge3" class="edge">
<title>src/difference/difference&#45;moamin/difference.spec.js&#45;&gt;src/difference/difference&#45;moamin/difference.js</title>
<path fill="none" stroke="#000000" stroke-width="2" stroke-opacity="0.200000" d="M147.11,-512C167.44,-512 191.58,-512 211.21,-512"/>
<polygon fill="#000000" fill-opacity="0.200000" stroke="#000000" stroke-width="2" stroke-opacity="0.200000" points="211.41,-514.1 217.41,-512 211.41,-509.9 211.41,-514.1"/>
</g>
<!-- src/difference/difference&#45;tatsiana/solution&#45;array&#45;difference.js -->
<g id="node7" class="node">
<title>src/difference/difference&#45;tatsiana/solution&#45;array&#45;difference.js</title>
<g id="a_node7"><a xlink:href="../src/difference/difference-tatsiana/solution-array-difference.js" xlink:title="solution&#45;array&#45;difference.js">
<path fill="#ffffcc" stroke="black" d="M304.33,-460.3C304.33,-460.3 194.71,-460.3 194.71,-460.3 191.61,-460.3 188.51,-457.2 188.51,-454.1 188.51,-454.1 188.51,-447.9 188.51,-447.9 188.51,-444.8 191.61,-441.7 194.71,-441.7 194.71,-441.7 304.33,-441.7 304.33,-441.7 307.43,-441.7 310.53,-444.8 310.53,-447.9 310.53,-447.9 310.53,-454.1 310.53,-454.1 310.53,-457.2 307.43,-460.3 304.33,-460.3"/>
<text text-anchor="middle" x="249.52" y="-448.3" font-family="Helvetica,sans-Serif" font-size="9.00">solution&#45;array&#45;difference.js</text>
</a>
</g>
</g>
<!-- src/difference/difference&#45;tatsiana/solution&#45;array&#45;difference.spec.js -->
<g id="node8" class="node">
<title>src/difference/difference&#45;tatsiana/solution&#45;array&#45;difference.spec.js</title>
<g id="a_node8"><a xlink:href="../src/difference/difference-tatsiana/solution-array-difference.spec.js" xlink:title="solution&#45;array&#45;difference.spec.js">
<path fill="#ffffcc" stroke="black" d="M169.07,-460.3C169.07,-460.3 38.44,-460.3 38.44,-460.3 35.34,-460.3 32.24,-457.2 32.24,-454.1 32.24,-454.1 32.24,-447.9 32.24,-447.9 32.24,-444.8 35.34,-441.7 38.44,-441.7 38.44,-441.7 169.07,-441.7 169.07,-441.7 172.17,-441.7 175.27,-444.8 175.27,-447.9 175.27,-447.9 175.27,-454.1 175.27,-454.1 175.27,-457.2 172.17,-460.3 169.07,-460.3"/>
<text text-anchor="middle" x="103.76" y="-448.3" font-family="Helvetica,sans-Serif" font-size="9.00">solution&#45;array&#45;difference.spec.js</text>
</a>
</g>
</g>
<!-- src/difference/difference&#45;tatsiana/solution&#45;array&#45;difference.spec.js&#45;&gt;src/difference/difference&#45;tatsiana/solution&#45;array&#45;difference.js -->
<g id="edge4" class="edge">
<title>src/difference/difference&#45;tatsiana/solution&#45;array&#45;difference.spec.js&#45;&gt;src/difference/difference&#45;tatsiana/solution&#45;array&#45;difference.js</title>
<path fill="none" stroke="#000000" stroke-width="2" stroke-opacity="0.200000" d="M175.37,-451C177.5,-451 179.64,-451 181.76,-451"/>
<polygon fill="#000000" fill-opacity="0.200000" stroke="#000000" stroke-width="2" stroke-opacity="0.200000" points="182.11,-453.1 188.11,-451 182.11,-448.9 182.11,-453.1"/>
</g>
<!-- src/difference/template&#45;solution&#45;Moamin/difference.js -->
<g id="node9" class="node">
<title>src/difference/template&#45;solution&#45;Moamin/difference.js</title>
<g id="a_node9"><a xlink:href="../src/difference/template-solution-Moamin/difference.js" xlink:title="difference.js">
<path fill="#ffffcc" stroke="black" d="M275.33,-399.3C275.33,-399.3 223.71,-399.3 223.71,-399.3 220.61,-399.3 217.51,-396.2 217.51,-393.1 217.51,-393.1 217.51,-386.9 217.51,-386.9 217.51,-383.8 220.61,-380.7 223.71,-380.7 223.71,-380.7 275.33,-380.7 275.33,-380.7 278.43,-380.7 281.53,-383.8 281.53,-386.9 281.53,-386.9 281.53,-393.1 281.53,-393.1 281.53,-396.2 278.43,-399.3 275.33,-399.3"/>
<text text-anchor="middle" x="249.52" y="-387.3" font-family="Helvetica,sans-Serif" font-size="9.00">difference.js</text>
</a>
</g>
</g>
<!-- src/difference/template&#45;solution&#45;Moamin/difference.spec.js -->
<g id="node10" class="node">
<title>src/difference/template&#45;solution&#45;Moamin/difference.spec.js</title>
<g id="a_node10"><a xlink:href="../src/difference/template-solution-Moamin/difference.spec.js" xlink:title="difference.spec.js">
<path fill="#ffffcc" stroke="black" d="M140.57,-399.3C140.57,-399.3 66.94,-399.3 66.94,-399.3 63.84,-399.3 60.74,-396.2 60.74,-393.1 60.74,-393.1 60.74,-386.9 60.74,-386.9 60.74,-383.8 63.84,-380.7 66.94,-380.7 66.94,-380.7 140.57,-380.7 140.57,-380.7 143.67,-380.7 146.77,-383.8 146.77,-386.9 146.77,-386.9 146.77,-393.1 146.77,-393.1 146.77,-396.2 143.67,-399.3 140.57,-399.3"/>
<text text-anchor="middle" x="103.76" y="-387.3" font-family="Helvetica,sans-Serif" font-size="9.00">difference.spec.js</text>
</a>
</g>
</g>
<!-- src/difference/template&#45;solution&#45;Moamin/difference.spec.js&#45;&gt;src/difference/template&#45;solution&#45;Moamin/difference.js -->
<g id="edge5" class="edge">
<title>src/difference/template&#45;solution&#45;Moamin/difference.spec.js&#45;&gt;src/difference/template&#45;solution&#45;Moamin/difference.js</title>
<path fill="none" stroke="#000000" stroke-width="2" stroke-opacity="0.200000" d="M147.11,-390C167.44,-390 191.58,-390 211.21,-390"/>
<polygon fill="#000000" fill-opacity="0.200000" stroke="#000000" stroke-width="2" stroke-opacity="0.200000" points="211.41,-392.1 217.41,-390 211.41,-387.9 211.41,-392.1"/>
</g>
<!-- src/intersection/template&#45;solution/intersection.js -->
<g id="node11" class="node">
<title>src/intersection/template&#45;solution/intersection.js</title>
<g id="a_node11"><a xlink:href="../src/intersection/template-solution/intersection.js" xlink:title="intersection.js">
<path fill="#ffffcc" stroke="black" d="M278.82,-303.3C278.82,-303.3 220.21,-303.3 220.21,-303.3 217.11,-303.3 214.01,-300.2 214.01,-297.1 214.01,-297.1 214.01,-290.9 214.01,-290.9 214.01,-287.8 217.11,-284.7 220.21,-284.7 220.21,-284.7 278.82,-284.7 278.82,-284.7 281.92,-284.7 285.02,-287.8 285.02,-290.9 285.02,-290.9 285.02,-297.1 285.02,-297.1 285.02,-300.2 281.92,-303.3 278.82,-303.3"/>
<text text-anchor="middle" x="249.52" y="-291.3" font-family="Helvetica,sans-Serif" font-size="9.00">intersection.js</text>
</a>
</g>
</g>
<!-- src/intersection/template&#45;solution/intersection.spec.js -->
<g id="node12" class="node">
<title>src/intersection/template&#45;solution/intersection.spec.js</title>
<g id="a_node12"><a xlink:href="../src/intersection/template-solution/intersection.spec.js" xlink:title="intersection.spec.js">
<path fill="#ffffcc" stroke="black" d="M143.57,-303.3C143.57,-303.3 63.94,-303.3 63.94,-303.3 60.84,-303.3 57.74,-300.2 57.74,-297.1 57.74,-297.1 57.74,-290.9 57.74,-290.9 57.74,-287.8 60.84,-284.7 63.94,-284.7 63.94,-284.7 143.57,-284.7 143.57,-284.7 146.67,-284.7 149.77,-287.8 149.77,-290.9 149.77,-290.9 149.77,-297.1 149.77,-297.1 149.77,-300.2 146.67,-303.3 143.57,-303.3"/>
<text text-anchor="middle" x="103.76" y="-291.3" font-family="Helvetica,sans-Serif" font-size="9.00">intersection.spec.js</text>
</a>
</g>
</g>
<!-- src/intersection/template&#45;solution/intersection.spec.js&#45;&gt;src/intersection/template&#45;solution/intersection.js -->
<g id="edge6" class="edge">
<title>src/intersection/template&#45;solution/intersection.spec.js&#45;&gt;src/intersection/template&#45;solution/intersection.js</title>
<path fill="none" stroke="#000000" stroke-width="2" stroke-opacity="0.200000" d="M149.85,-294C168.18,-294 189.23,-294 207.17,-294"/>
<polygon fill="#000000" fill-opacity="0.200000" stroke="#000000" stroke-width="2" stroke-opacity="0.200000" points="207.62,-296.1 213.62,-294 207.62,-291.9 207.62,-296.1"/>
</g>
<!-- src/sort&#45;numbers/example&#45;built&#45;in&#45;sort/sort&#45;numbers.js -->
<g id="node13" class="node">
<title>src/sort&#45;numbers/example&#45;built&#45;in&#45;sort/sort&#45;numbers.js</title>
<g id="a_node13"><a xlink:href="../src/sort-numbers/example-built-in-sort/sort-numbers.js" xlink:title="sort&#45;numbers.js">
<path fill="#ffffcc" stroke="black" d="M282.32,-207.3C282.32,-207.3 216.72,-207.3 216.72,-207.3 213.62,-207.3 210.52,-204.2 210.52,-201.1 210.52,-201.1 210.52,-194.9 210.52,-194.9 210.52,-191.8 213.62,-188.7 216.72,-188.7 216.72,-188.7 282.32,-188.7 282.32,-188.7 285.42,-188.7 288.52,-191.8 288.52,-194.9 288.52,-194.9 288.52,-201.1 288.52,-201.1 288.52,-204.2 285.42,-207.3 282.32,-207.3"/>
<text text-anchor="middle" x="249.52" y="-195.3" font-family="Helvetica,sans-Serif" font-size="9.00">sort&#45;numbers.js</text>
</a>
</g>
</g>
<!-- src/sort&#45;numbers/example&#45;built&#45;in&#45;sort/sort&#45;numbers.spec.js -->
<g id="node14" class="node">
<title>src/sort&#45;numbers/example&#45;built&#45;in&#45;sort/sort&#45;numbers.spec.js</title>
<g id="a_node14"><a xlink:href="../src/sort-numbers/example-built-in-sort/sort-numbers.spec.js" xlink:title="sort&#45;numbers.spec.js">
<path fill="#ffffcc" stroke="black" d="M147.06,-207.3C147.06,-207.3 60.45,-207.3 60.45,-207.3 57.35,-207.3 54.25,-204.2 54.25,-201.1 54.25,-201.1 54.25,-194.9 54.25,-194.9 54.25,-191.8 57.35,-188.7 60.45,-188.7 60.45,-188.7 147.06,-188.7 147.06,-188.7 150.16,-188.7 153.27,-191.8 153.27,-194.9 153.27,-194.9 153.27,-201.1 153.27,-201.1 153.27,-204.2 150.16,-207.3 147.06,-207.3"/>
<text text-anchor="middle" x="103.76" y="-195.3" font-family="Helvetica,sans-Serif" font-size="9.00">sort&#45;numbers.spec.js</text>
</a>
</g>
</g>
<!-- src/sort&#45;numbers/example&#45;built&#45;in&#45;sort/sort&#45;numbers.spec.js&#45;&gt;src/sort&#45;numbers/example&#45;built&#45;in&#45;sort/sort&#45;numbers.js -->
<g id="edge7" class="edge">
<title>src/sort&#45;numbers/example&#45;built&#45;in&#45;sort/sort&#45;numbers.spec.js&#45;&gt;src/sort&#45;numbers/example&#45;built&#45;in&#45;sort/sort&#45;numbers.js</title>
<path fill="none" stroke="#000000" stroke-width="2" stroke-opacity="0.200000" d="M153.43,-198C169.82,-198 188.02,-198 204.08,-198"/>
<polygon fill="#000000" fill-opacity="0.200000" stroke="#000000" stroke-width="2" stroke-opacity="0.200000" points="204.35,-200.1 210.35,-198 204.35,-195.9 204.35,-200.1"/>
</g>
<!-- src/split&#45;object/split&#45;object&#45;deepa/split&#45;object.js -->
<g id="node15" class="node">
<title>src/split&#45;object/split&#45;object&#45;deepa/split&#45;object.js</title>
<g id="a_node15"><a xlink:href="../src/split-object/split-object-deepa/split-object.js" xlink:title="split&#45;object.js">
<path fill="#ffffcc" stroke="black" d="M277.32,-111.3C277.32,-111.3 221.72,-111.3 221.72,-111.3 218.62,-111.3 215.52,-108.2 215.52,-105.1 215.52,-105.1 215.52,-98.9 215.52,-98.9 215.52,-95.8 218.62,-92.7 221.72,-92.7 221.72,-92.7 277.32,-92.7 277.32,-92.7 280.42,-92.7 283.52,-95.8 283.52,-98.9 283.52,-98.9 283.52,-105.1 283.52,-105.1 283.52,-108.2 280.42,-111.3 277.32,-111.3"/>
<text text-anchor="middle" x="249.52" y="-99.3" font-family="Helvetica,sans-Serif" font-size="9.00">split&#45;object.js</text>
</a>
</g>
</g>
<!-- src/split&#45;object/split&#45;object&#45;deepa/split&#45;object.spec.js -->
<g id="node16" class="node">
<title>src/split&#45;object/split&#45;object&#45;deepa/split&#45;object.spec.js</title>
<g id="a_node16"><a xlink:href="../src/split-object/split-object-deepa/split-object.spec.js" xlink:title="split&#45;object.spec.js">
<path fill="#ffffcc" stroke="black" d="M142.07,-111.3C142.07,-111.3 65.45,-111.3 65.45,-111.3 62.35,-111.3 59.25,-108.2 59.25,-105.1 59.25,-105.1 59.25,-98.9 59.25,-98.9 59.25,-95.8 62.35,-92.7 65.45,-92.7 65.45,-92.7 142.07,-92.7 142.07,-92.7 145.17,-92.7 148.27,-95.8 148.27,-98.9 148.27,-98.9 148.27,-105.1 148.27,-105.1 148.27,-108.2 145.17,-111.3 142.07,-111.3"/>
<text text-anchor="middle" x="103.76" y="-99.3" font-family="Helvetica,sans-Serif" font-size="9.00">split&#45;object.spec.js</text>
</a>
</g>
</g>
<!-- src/split&#45;object/split&#45;object&#45;deepa/split&#45;object.spec.js&#45;&gt;src/split&#45;object/split&#45;object&#45;deepa/split&#45;object.js -->
<g id="edge8" class="edge">
<title>src/split&#45;object/split&#45;object&#45;deepa/split&#45;object.spec.js&#45;&gt;src/split&#45;object/split&#45;object&#45;deepa/split&#45;object.js</title>
<path fill="none" stroke="#000000" stroke-width="2" stroke-opacity="0.200000" d="M148.28,-102C167.59,-102 190.14,-102 208.96,-102"/>
<polygon fill="#000000" fill-opacity="0.200000" stroke="#000000" stroke-width="2" stroke-opacity="0.200000" points="209.19,-104.1 215.19,-102 209.19,-99.9 209.19,-104.1"/>
</g>
<!-- src/split&#45;object/template&#45;solution/splitObject.js -->
<g id="node17" class="node">
<title>src/split&#45;object/template&#45;solution/splitObject.js</title>
<g id="a_node17"><a xlink:href="../src/split-object/template-solution/splitObject.js" xlink:title="splitObject.js">
<path fill="#ffffcc" stroke="black" d="M276.82,-50.3C276.82,-50.3 222.22,-50.3 222.22,-50.3 219.12,-50.3 216.02,-47.2 216.02,-44.1 216.02,-44.1 216.02,-37.9 216.02,-37.9 216.02,-34.8 219.12,-31.7 222.22,-31.7 222.22,-31.7 276.82,-31.7 276.82,-31.7 279.92,-31.7 283.02,-34.8 283.02,-37.9 283.02,-37.9 283.02,-44.1 283.02,-44.1 283.02,-47.2 279.92,-50.3 276.82,-50.3"/>
<text text-anchor="middle" x="249.52" y="-38.3" font-family="Helvetica,sans-Serif" font-size="9.00">splitObject.js</text>
</a>
</g>
</g>
<!-- src/split&#45;object/template&#45;solution/splitObject.spec.js -->
<g id="node18" class="node">
<title>src/split&#45;object/template&#45;solution/splitObject.spec.js</title>
<g id="a_node18"><a xlink:href="../src/split-object/template-solution/splitObject.spec.js" xlink:title="splitObject.spec.js">
<path fill="#ffffcc" stroke="black" d="M141.57,-50.3C141.57,-50.3 65.95,-50.3 65.95,-50.3 62.85,-50.3 59.75,-47.2 59.75,-44.1 59.75,-44.1 59.75,-37.9 59.75,-37.9 59.75,-34.8 62.85,-31.7 65.95,-31.7 65.95,-31.7 141.57,-31.7 141.57,-31.7 144.67,-31.7 147.77,-34.8 147.77,-37.9 147.77,-37.9 147.77,-44.1 147.77,-44.1 147.77,-47.2 144.67,-50.3 141.57,-50.3"/>
<text text-anchor="middle" x="103.76" y="-38.3" font-family="Helvetica,sans-Serif" font-size="9.00">splitObject.spec.js</text>
</a>
</g>
</g>
<!-- src/split&#45;object/template&#45;solution/splitObject.spec.js&#45;&gt;src/split&#45;object/template&#45;solution/splitObject.js -->
<g id="edge9" class="edge">
<title>src/split&#45;object/template&#45;solution/splitObject.spec.js&#45;&gt;src/split&#45;object/template&#45;solution/splitObject.js</title>
<path fill="none" stroke="#000000" stroke-width="2" stroke-opacity="0.200000" d="M147.89,-41C167.51,-41 190.54,-41 209.62,-41"/>
<polygon fill="#000000" fill-opacity="0.200000" stroke="#000000" stroke-width="2" stroke-opacity="0.200000" points="209.93,-43.1 215.93,-41 209.93,-38.9 209.93,-43.1"/>
</g>
</g>
</svg>
