<?xml version="1.0" encoding="UTF-8" standalone="no"?>
<!DOCTYPE svg PUBLIC "-//W3C//DTD SVG 1.1//EN"
 "http://www.w3.org/Graphics/SVG/1.1/DTD/svg11.dtd">
<!-- Generated by graphviz version 2.44.0 (20200408.0750)
 -->
<!-- Title: dependency&#45;cruiser output Pages: 1 -->
<svg width="351pt" height="653pt"
 viewBox="0.00 0.00 350.52 653.00" xmlns="http://www.w3.org/2000/svg" xmlns:xlink="http://www.w3.org/1999/xlink">
<g id="graph0" class="graph" transform="scale(1 1) rotate(0) translate(4 649)">
<title>dependency&#45;cruiser output</title>
<polygon fill="white" stroke="transparent" points="-4,4 -4,-649 346.52,-649 346.52,4 -4,4"/>
<g id="clust1" class="cluster">
<title>cluster_src</title>
<path fill="#ffffff" stroke="black" stroke-width="2" d="M20,-8C20,-8 322.52,-8 322.52,-8 328.52,-8 334.52,-14 334.52,-20 334.52,-20 334.52,-625 334.52,-625 334.52,-631 328.52,-637 322.52,-637 322.52,-637 20,-637 20,-637 14,-637 8,-631 8,-625 8,-625 8,-20 8,-20 8,-14 14,-8 20,-8"/>
<text text-anchor="middle" x="171.26" y="-624.9" font-family="Helvetica,sans-Serif" font-weight="bold" font-size="9.00">src</text>
</g>
<g id="clust2" class="cluster">
<title>cluster_src/deep&#45;flat</title>
<path fill="#ffffff" stroke="black" stroke-width="2" d="M42,-461C42,-461 300.52,-461 300.52,-461 306.52,-461 312.52,-467 312.52,-473 312.52,-473 312.52,-598 312.52,-598 312.52,-604 306.52,-610 300.52,-610 300.52,-610 42,-610 42,-610 36,-610 30,-604 30,-598 30,-598 30,-473 30,-473 30,-467 36,-461 42,-461"/>
<text text-anchor="middle" x="171.26" y="-597.9" font-family="Helvetica,sans-Serif" font-weight="bold" font-size="9.00">deep&#45;flat</text>
</g>
<g id="clust3" class="cluster">
<title>cluster_src/deep&#45;flat/template&#45;deep&#45;flat</title>
<path fill="#ffffff" stroke="black" stroke-width="2" d="M50,-530C50,-530 292.52,-530 292.52,-530 298.52,-530 304.52,-536 304.52,-542 304.52,-542 304.52,-571 304.52,-571 304.52,-577 298.52,-583 292.52,-583 292.52,-583 50,-583 50,-583 44,-583 38,-577 38,-571 38,-571 38,-542 38,-542 38,-536 44,-530 50,-530"/>
<text text-anchor="middle" x="171.26" y="-570.9" font-family="Helvetica,sans-Serif" font-weight="bold" font-size="9.00">template&#45;deep&#45;flat</text>
</g>
<g id="clust4" class="cluster">
<title>cluster_src/deep&#45;flat/template&#45;solution</title>
<path fill="#ffffff" stroke="black" stroke-width="2" d="M67,-469C67,-469 275.52,-469 275.52,-469 281.52,-469 287.52,-475 287.52,-481 287.52,-481 287.52,-510 287.52,-510 287.52,-516 281.52,-522 275.52,-522 275.52,-522 67,-522 67,-522 61,-522 55,-516 55,-510 55,-510 55,-481 55,-481 55,-475 61,-469 67,-469"/>
<text text-anchor="middle" x="171.26" y="-509.9" font-family="Helvetica,sans-Serif" font-weight="bold" font-size="9.00">template&#45;solution</text>
</g>
<g id="clust5" class="cluster">
<title>cluster_src/difference</title>
<path fill="#ffffff" stroke="black" stroke-width="2" d="M28,-304C28,-304 314.52,-304 314.52,-304 320.52,-304 326.52,-310 326.52,-316 326.52,-316 326.52,-441 326.52,-441 326.52,-447 320.52,-453 314.52,-453 314.52,-453 28,-453 28,-453 22,-453 16,-447 16,-441 16,-441 16,-316 16,-316 16,-310 22,-304 28,-304"/>
<text text-anchor="middle" x="171.26" y="-440.9" font-family="Helvetica,sans-Serif" font-weight="bold" font-size="9.00">difference</text>
</g>
<g id="clust6" class="cluster">
<title>cluster_src/difference/difference&#45;moamin</title>
<path fill="#ffffff" stroke="black" stroke-width="2" d="M64.75,-373C64.75,-373 277.77,-373 277.77,-373 283.77,-373 289.77,-379 289.77,-385 289.77,-385 289.77,-414 289.77,-414 289.77,-420 283.77,-426 277.77,-426 277.77,-426 64.75,-426 64.75,-426 58.75,-426 52.75,-420 52.75,-414 52.75,-414 52.75,-385 52.75,-385 52.75,-379 58.75,-373 64.75,-373"/>
<text text-anchor="middle" x="171.26" y="-413.9" font-family="Helvetica,sans-Serif" font-weight="bold" font-size="9.00">difference&#45;moamin</text>
</g>
<g id="clust7" class="cluster">
<title>cluster_src/difference/difference&#45;tatsiana</title>
<path fill="#ffffff" stroke="black" stroke-width="2" d="M36,-312C36,-312 306.52,-312 306.52,-312 312.52,-312 318.52,-318 318.52,-324 318.52,-324 318.52,-353 318.52,-353 318.52,-359 312.52,-365 306.52,-365 306.52,-365 36,-365 36,-365 30,-365 24,-359 24,-353 24,-353 24,-324 24,-324 24,-318 30,-312 36,-312"/>
<text text-anchor="middle" x="171.26" y="-352.9" font-family="Helvetica,sans-Serif" font-weight="bold" font-size="9.00">difference&#45;tatsiana</text>
</g>
<g id="clust8" class="cluster">
<title>cluster_src/intersection</title>
<path fill="#ffffff" stroke="black" stroke-width="2" d="M53.5,-208C53.5,-208 289.02,-208 289.02,-208 295.02,-208 301.02,-214 301.02,-220 301.02,-220 301.02,-284 301.02,-284 301.02,-290 295.02,-296 289.02,-296 289.02,-296 53.5,-296 53.5,-296 47.5,-296 41.5,-290 41.5,-284 41.5,-284 41.5,-220 41.5,-220 41.5,-214 47.5,-208 53.5,-208"/>
<text text-anchor="middle" x="171.26" y="-283.9" font-family="Helvetica,sans-Serif" font-weight="bold" font-size="9.00">intersection</text>
</g>
<g id="clust9" class="cluster">
<title>cluster_src/intersection/template&#45;solution</title>
<path fill="#ffffff" stroke="black" stroke-width="2" d="M61.5,-216C61.5,-216 281.02,-216 281.02,-216 287.02,-216 293.02,-222 293.02,-228 293.02,-228 293.02,-257 293.02,-257 293.02,-263 287.02,-269 281.02,-269 281.02,-269 61.5,-269 61.5,-269 55.5,-269 49.5,-263 49.5,-257 49.5,-257 49.5,-228 49.5,-228 49.5,-222 55.5,-216 61.5,-216"/>
<text text-anchor="middle" x="171.26" y="-256.9" font-family="Helvetica,sans-Serif" font-weight="bold" font-size="9.00">template&#45;solution</text>
</g>
<g id="clust10" class="cluster">
<title>cluster_src/sort&#45;numbers</title>
<path fill="#ffffff" stroke="black" stroke-width="2" d="M50,-112C50,-112 292.52,-112 292.52,-112 298.52,-112 304.52,-118 304.52,-124 304.52,-124 304.52,-188 304.52,-188 304.52,-194 298.52,-200 292.52,-200 292.52,-200 50,-200 50,-200 44,-200 38,-194 38,-188 38,-188 38,-124 38,-124 38,-118 44,-112 50,-112"/>
<text text-anchor="middle" x="171.26" y="-187.9" font-family="Helvetica,sans-Serif" font-weight="bold" font-size="9.00">sort&#45;numbers</text>
</g>
<g id="clust11" class="cluster">
<title>cluster_src/sort&#45;numbers/example&#45;built&#45;in&#45;sort</title>
<path fill="#ffffff" stroke="black" stroke-width="2" d="M58,-120C58,-120 284.52,-120 284.52,-120 290.52,-120 296.52,-126 296.52,-132 296.52,-132 296.52,-161 296.52,-161 296.52,-167 290.52,-173 284.52,-173 284.52,-173 58,-173 58,-173 52,-173 46,-167 46,-161 46,-161 46,-132 46,-132 46,-126 52,-120 58,-120"/>
<text text-anchor="middle" x="171.26" y="-160.9" font-family="Helvetica,sans-Serif" font-weight="bold" font-size="9.00">example&#45;built&#45;in&#45;sort</text>
</g>
<g id="clust12" class="cluster">
<title>cluster_src/split&#45;object</title>
<path fill="#ffffff" stroke="black" stroke-width="2" d="M55.5,-16C55.5,-16 287.02,-16 287.02,-16 293.02,-16 299.02,-22 299.02,-28 299.02,-28 299.02,-92 299.02,-92 299.02,-98 293.02,-104 287.02,-104 287.02,-104 55.5,-104 55.5,-104 49.5,-104 43.5,-98 43.5,-92 43.5,-92 43.5,-28 43.5,-28 43.5,-22 49.5,-16 55.5,-16"/>
<text text-anchor="middle" x="171.26" y="-91.9" font-family="Helvetica,sans-Serif" font-weight="bold" font-size="9.00">split&#45;object</text>
</g>
<g id="clust13" class="cluster">
<title>cluster_src/split&#45;object/template&#45;solution</title>
<path fill="#ffffff" stroke="black" stroke-width="2" d="M63.5,-24C63.5,-24 279.02,-24 279.02,-24 285.02,-24 291.02,-30 291.02,-36 291.02,-36 291.02,-65 291.02,-65 291.02,-71 285.02,-77 279.02,-77 279.02,-77 63.5,-77 63.5,-77 57.5,-77 51.5,-71 51.5,-65 51.5,-65 51.5,-36 51.5,-36 51.5,-30 57.5,-24 63.5,-24"/>
<text text-anchor="middle" x="171.26" y="-64.9" font-family="Helvetica,sans-Serif" font-weight="bold" font-size="9.00">template&#45;solution</text>
</g>
<!-- src/deep&#45;flat/template&#45;deep&#45;flat/solution&#45;deep&#45;flat.js -->
<g id="node1" class="node">
<title>src/deep&#45;flat/template&#45;deep&#45;flat/solution&#45;deep&#45;flat.js</title>
<g id="a_node1"><a xlink:href="../src/deep-flat/template-deep-flat/solution-deep-flat.js" xlink:title="solution&#45;deep&#45;flat.js">
<path fill="#ffffcc" stroke="black" d="M290.33,-556.3C290.33,-556.3 208.71,-556.3 208.71,-556.3 205.61,-556.3 202.51,-553.2 202.51,-550.1 202.51,-550.1 202.51,-543.9 202.51,-543.9 202.51,-540.8 205.61,-537.7 208.71,-537.7 208.71,-537.7 290.33,-537.7 290.33,-537.7 293.43,-537.7 296.53,-540.8 296.53,-543.9 296.53,-543.9 296.53,-550.1 296.53,-550.1 296.53,-553.2 293.43,-556.3 290.33,-556.3"/>
<text text-anchor="middle" x="249.52" y="-544.3" font-family="Helvetica,sans-Serif" font-size="9.00">solution&#45;deep&#45;flat.js</text>
</a>
</g>
</g>
<!-- src/deep&#45;flat/template&#45;deep&#45;flat/solution&#45;deep&#45;flat.spec.js -->
<g id="node2" class="node">
<title>src/deep&#45;flat/template&#45;deep&#45;flat/solution&#45;deep&#45;flat.spec.js</title>
<g id="a_node2"><a xlink:href="../src/deep-flat/template-deep-flat/solution-deep-flat.spec.js" xlink:title="solution&#45;deep&#45;flat.spec.js">
<path fill="#ffffcc" stroke="black" d="M155.08,-556.3C155.08,-556.3 52.44,-556.3 52.44,-556.3 49.34,-556.3 46.24,-553.2 46.24,-550.1 46.24,-550.1 46.24,-543.9 46.24,-543.9 46.24,-540.8 49.34,-537.7 52.44,-537.7 52.44,-537.7 155.08,-537.7 155.08,-537.7 158.18,-537.7 161.28,-540.8 161.28,-543.9 161.28,-543.9 161.28,-550.1 161.28,-550.1 161.28,-553.2 158.18,-556.3 155.08,-556.3"/>
<text text-anchor="middle" x="103.76" y="-544.3" font-family="Helvetica,sans-Serif" font-size="9.00">solution&#45;deep&#45;flat.spec.js</text>
</a>
</g>
</g>
<!-- src/deep&#45;flat/template&#45;deep&#45;flat/solution&#45;deep&#45;flat.spec.js&#45;&gt;src/deep&#45;flat/template&#45;deep&#45;flat/solution&#45;deep&#45;flat.js -->
<g id="edge1" class="edge">
<title>src/deep&#45;flat/template&#45;deep&#45;flat/solution&#45;deep&#45;flat.spec.js&#45;&gt;src/deep&#45;flat/template&#45;deep&#45;flat/solution&#45;deep&#45;flat.js</title>
<path fill="none" stroke="#000000" stroke-width="2" stroke-opacity="0.200000" d="M161.58,-547C172.97,-547 184.88,-547 196.12,-547"/>
<polygon fill="#000000" fill-opacity="0.200000" stroke="#000000" stroke-width="2" stroke-opacity="0.200000" points="196.28,-549.1 202.28,-547 196.28,-544.9 196.28,-549.1"/>
</g>
<!-- src/deep&#45;flat/template&#45;solution/deepFlat.js -->
<g id="node3" class="node">
<title>src/deep&#45;flat/template&#45;solution/deepFlat.js</title>
<g id="a_node3"><a xlink:href="../src/deep-flat/template-solution/deepFlat.js" xlink:title="deepFlat.js">
<path fill="#ffffcc" stroke="black" d="M273.33,-495.3C273.33,-495.3 225.71,-495.3 225.71,-495.3 222.61,-495.3 219.51,-492.2 219.51,-489.1 219.51,-489.1 219.51,-482.9 219.51,-482.9 219.51,-479.8 222.61,-476.7 225.71,-476.7 225.71,-476.7 273.33,-476.7 273.33,-476.7 276.43,-476.7 279.53,-479.8 279.53,-482.9 279.53,-482.9 279.53,-489.1 279.53,-489.1 279.53,-492.2 276.43,-495.3 273.33,-495.3"/>
<text text-anchor="middle" x="249.52" y="-483.3" font-family="Helvetica,sans-Serif" font-size="9.00">deepFlat.js</text>
</a>
</g>
</g>
<!-- src/deep&#45;flat/template&#45;solution/deepFlat.spec.js -->
<g id="node4" class="node">
<title>src/deep&#45;flat/template&#45;solution/deepFlat.spec.js</title>
<g id="a_node4"><a xlink:href="../src/deep-flat/template-solution/deepFlat.spec.js" xlink:title="deepFlat.spec.js">
<path fill="#ffffcc" stroke="black" d="M138.08,-495.3C138.08,-495.3 69.44,-495.3 69.44,-495.3 66.34,-495.3 63.24,-492.2 63.24,-489.1 63.24,-489.1 63.24,-482.9 63.24,-482.9 63.24,-479.8 66.34,-476.7 69.44,-476.7 69.44,-476.7 138.08,-476.7 138.08,-476.7 141.18,-476.7 144.28,-479.8 144.28,-482.9 144.28,-482.9 144.28,-489.1 144.28,-489.1 144.28,-492.2 141.18,-495.3 138.08,-495.3"/>
<text text-anchor="middle" x="103.76" y="-483.3" font-family="Helvetica,sans-Serif" font-size="9.00">deepFlat.spec.js</text>
</a>
</g>
</g>
<!-- src/deep&#45;flat/template&#45;solution/deepFlat.spec.js&#45;&gt;src/deep&#45;flat/template&#45;solution/deepFlat.js -->
<g id="edge2" class="edge">
<title>src/deep&#45;flat/template&#45;solution/deepFlat.spec.js&#45;&gt;src/deep&#45;flat/template&#45;solution/deepFlat.js</title>
<path fill="none" stroke="#000000" stroke-width="2" stroke-opacity="0.200000" d="M144.42,-486C166.06,-486 192.6,-486 213.47,-486"/>
<polygon fill="#000000" fill-opacity="0.200000" stroke="#000000" stroke-width="2" stroke-opacity="0.200000" points="213.47,-488.1 219.47,-486 213.47,-483.9 213.47,-488.1"/>
</g>
<!-- src/difference/difference&#45;moamin/difference.js -->
<g id="node5" class="node">
<title>src/difference/difference&#45;moamin/difference.js</title>
<g id="a_node5"><a xlink:href="../src/difference/difference-moamin/difference.js" xlink:title="difference.js">
<path fill="#ffffcc" stroke="black" d="M275.33,-399.3C275.33,-399.3 223.71,-399.3 223.71,-399.3 220.61,-399.3 217.51,-396.2 217.51,-393.1 217.51,-393.1 217.51,-386.9 217.51,-386.9 217.51,-383.8 220.61,-380.7 223.71,-380.7 223.71,-380.7 275.33,-380.7 275.33,-380.7 278.43,-380.7 281.53,-383.8 281.53,-386.9 281.53,-386.9 281.53,-393.1 281.53,-393.1 281.53,-396.2 278.43,-399.3 275.33,-399.3"/>
<text text-anchor="middle" x="249.52" y="-387.3" font-family="Helvetica,sans-Serif" font-size="9.00">difference.js</text>
</a>
</g>
</g>
<!-- src/difference/difference&#45;moamin/difference.spec.js -->
<g id="node6" class="node">
<title>src/difference/difference&#45;moamin/difference.spec.js</title>
<g id="a_node6"><a xlink:href="../src/difference/difference-moamin/difference.spec.js" xlink:title="difference.spec.js">
<path fill="#ffffcc" stroke="black" d="M140.57,-399.3C140.57,-399.3 66.94,-399.3 66.94,-399.3 63.84,-399.3 60.74,-396.2 60.74,-393.1 60.74,-393.1 60.74,-386.9 60.74,-386.9 60.74,-383.8 63.84,-380.7 66.94,-380.7 66.94,-380.7 140.57,-380.7 140.57,-380.7 143.67,-380.7 146.77,-383.8 146.77,-386.9 146.77,-386.9 146.77,-393.1 146.77,-393.1 146.77,-396.2 143.67,-399.3 140.57,-399.3"/>
<text text-anchor="middle" x="103.76" y="-387.3" font-family="Helvetica,sans-Serif" font-size="9.00">difference.spec.js</text>
</a>
</g>
</g>
<!-- src/difference/difference&#45;moamin/difference.spec.js&#45;&gt;src/difference/difference&#45;moamin/difference.js -->
<g id="edge3" class="edge">
<title>src/difference/difference&#45;moamin/difference.spec.js&#45;&gt;src/difference/difference&#45;moamin/difference.js</title>
<path fill="none" stroke="#000000" stroke-width="2" stroke-opacity="0.200000" d="M147.11,-390C167.44,-390 191.58,-390 211.21,-390"/>
<polygon fill="#000000" fill-opacity="0.200000" stroke="#000000" stroke-width="2" stroke-opacity="0.200000" points="211.41,-392.1 217.41,-390 211.41,-387.9 211.41,-392.1"/>
</g>
<!-- src/difference/difference&#45;tatsiana/solution&#45;array&#45;difference.js -->
<g id="node7" class="node">
<title>src/difference/difference&#45;tatsiana/solution&#45;array&#45;difference.js</title>
<g id="a_node7"><a xlink:href="../src/difference/difference-tatsiana/solution-array-difference.js" xlink:title="solution&#45;array&#45;difference.js">
<path fill="#ffffcc" stroke="black" d="M304.33,-338.3C304.33,-338.3 194.71,-338.3 194.71,-338.3 191.61,-338.3 188.51,-335.2 188.51,-332.1 188.51,-332.1 188.51,-325.9 188.51,-325.9 188.51,-322.8 191.61,-319.7 194.71,-319.7 194.71,-319.7 304.33,-319.7 304.33,-319.7 307.43,-319.7 310.53,-322.8 310.53,-325.9 310.53,-325.9 310.53,-332.1 310.53,-332.1 310.53,-335.2 307.43,-338.3 304.33,-338.3"/>
<text text-anchor="middle" x="249.52" y="-326.3" font-family="Helvetica,sans-Serif" font-size="9.00">solution&#45;array&#45;difference.js</text>
</a>
</g>
</g>
<!-- src/difference/difference&#45;tatsiana/solution&#45;array&#45;difference.spec.js -->
<g id="node8" class="node">
<title>src/difference/difference&#45;tatsiana/solution&#45;array&#45;difference.spec.js</title>
<g id="a_node8"><a xlink:href="../src/difference/difference-tatsiana/solution-array-difference.spec.js" xlink:title="solution&#45;array&#45;difference.spec.js">
<path fill="#ffffcc" stroke="black" d="M169.07,-338.3C169.07,-338.3 38.44,-338.3 38.44,-338.3 35.34,-338.3 32.24,-335.2 32.24,-332.1 32.24,-332.1 32.24,-325.9 32.24,-325.9 32.24,-322.8 35.34,-319.7 38.44,-319.7 38.44,-319.7 169.07,-319.7 169.07,-319.7 172.17,-319.7 175.27,-322.8 175.27,-325.9 175.27,-325.9 175.27,-332.1 175.27,-332.1 175.27,-335.2 172.17,-338.3 169.07,-338.3"/>
<text text-anchor="middle" x="103.76" y="-326.3" font-family="Helvetica,sans-Serif" font-size="9.00">solution&#45;array&#45;difference.spec.js</text>
</a>
</g>
</g>
<!-- src/difference/difference&#45;tatsiana/solution&#45;array&#45;difference.spec.js&#45;&gt;src/difference/difference&#45;tatsiana/solution&#45;array&#45;difference.js -->
<g id="edge4" class="edge">
<title>src/difference/difference&#45;tatsiana/solution&#45;array&#45;difference.spec.js&#45;&gt;src/difference/difference&#45;tatsiana/solution&#45;array&#45;difference.js</title>
<path fill="none" stroke="#000000" stroke-width="2" stroke-opacity="0.200000" d="M175.37,-329C177.5,-329 179.64,-329 181.76,-329"/>
<polygon fill="#000000" fill-opacity="0.200000" stroke="#000000" stroke-width="2" stroke-opacity="0.200000" points="182.11,-331.1 188.11,-329 182.11,-326.9 182.11,-331.1"/>
</g>
<!-- src/intersection/template&#45;solution/intersection.js -->
<g id="node9" class="node">
<title>src/intersection/template&#45;solution/intersection.js</title>
<g id="a_node9"><a xlink:href="../src/intersection/template-solution/intersection.js" xlink:title="intersection.js">
<path fill="#ffffcc" stroke="black" d="M278.82,-242.3C278.82,-242.3 220.21,-242.3 220.21,-242.3 217.11,-242.3 214.01,-239.2 214.01,-236.1 214.01,-236.1 214.01,-229.9 214.01,-229.9 214.01,-226.8 217.11,-223.7 220.21,-223.7 220.21,-223.7 278.82,-223.7 278.82,-223.7 281.92,-223.7 285.02,-226.8 285.02,-229.9 285.02,-229.9 285.02,-236.1 285.02,-236.1 285.02,-239.2 281.92,-242.3 278.82,-242.3"/>
<text text-anchor="middle" x="249.52" y="-230.3" font-family="Helvetica,sans-Serif" font-size="9.00">intersection.js</text>
</a>
</g>
</g>
<!-- src/intersection/template&#45;solution/intersection.spec.js -->
<g id="node10" class="node">
<title>src/intersection/template&#45;solution/intersection.spec.js</title>
<g id="a_node10"><a xlink:href="../src/intersection/template-solution/intersection.spec.js" xlink:title="intersection.spec.js">
<path fill="#ffffcc" stroke="black" d="M143.57,-242.3C143.57,-242.3 63.94,-242.3 63.94,-242.3 60.84,-242.3 57.74,-239.2 57.74,-236.1 57.74,-236.1 57.74,-229.9 57.74,-229.9 57.74,-226.8 60.84,-223.7 63.94,-223.7 63.94,-223.7 143.57,-223.7 143.57,-223.7 146.67,-223.7 149.77,-226.8 149.77,-229.9 149.77,-229.9 149.77,-236.1 149.77,-236.1 149.77,-239.2 146.67,-242.3 143.57,-242.3"/>
<text text-anchor="middle" x="103.76" y="-230.3" font-family="Helvetica,sans-Serif" font-size="9.00">intersection.spec.js</text>
</a>
</g>
</g>
<!-- src/intersection/template&#45;solution/intersection.spec.js&#45;&gt;src/intersection/template&#45;solution/intersection.js -->
<g id="edge5" class="edge">
<title>src/intersection/template&#45;solution/intersection.spec.js&#45;&gt;src/intersection/template&#45;solution/intersection.js</title>
<path fill="none" stroke="#000000" stroke-width="2" stroke-opacity="0.200000" d="M149.85,-233C168.18,-233 189.23,-233 207.17,-233"/>
<polygon fill="#000000" fill-opacity="0.200000" stroke="#000000" stroke-width="2" stroke-opacity="0.200000" points="207.62,-235.1 213.62,-233 207.62,-230.9 207.62,-235.1"/>
</g>
<!-- src/sort&#45;numbers/example&#45;built&#45;in&#45;sort/sort&#45;numbers.js -->
<g id="node11" class="node">
<title>src/sort&#45;numbers/example&#45;built&#45;in&#45;sort/sort&#45;numbers.js</title>
<g id="a_node11"><a xlink:href="../src/sort-numbers/example-built-in-sort/sort-numbers.js" xlink:title="sort&#45;numbers.js">
<path fill="#ffffcc" stroke="black" d="M282.32,-146.3C282.32,-146.3 216.72,-146.3 216.72,-146.3 213.62,-146.3 210.52,-143.2 210.52,-140.1 210.52,-140.1 210.52,-133.9 210.52,-133.9 210.52,-130.8 213.62,-127.7 216.72,-127.7 216.72,-127.7 282.32,-127.7 282.32,-127.7 285.42,-127.7 288.52,-130.8 288.52,-133.9 288.52,-133.9 288.52,-140.1 288.52,-140.1 288.52,-143.2 285.42,-146.3 282.32,-146.3"/>
<text text-anchor="middle" x="249.52" y="-134.3" font-family="Helvetica,sans-Serif" font-size="9.00">sort&#45;numbers.js</text>
</a>
</g>
</g>
<!-- src/sort&#45;numbers/example&#45;built&#45;in&#45;sort/sort&#45;numbers.spec.js -->
<g id="node12" class="node">
<title>src/sort&#45;numbers/example&#45;built&#45;in&#45;sort/sort&#45;numbers.spec.js</title>
<g id="a_node12"><a xlink:href="../src/sort-numbers/example-built-in-sort/sort-numbers.spec.js" xlink:title="sort&#45;numbers.spec.js">
<path fill="#ffffcc" stroke="black" d="M147.06,-146.3C147.06,-146.3 60.45,-146.3 60.45,-146.3 57.35,-146.3 54.25,-143.2 54.25,-140.1 54.25,-140.1 54.25,-133.9 54.25,-133.9 54.25,-130.8 57.35,-127.7 60.45,-127.7 60.45,-127.7 147.06,-127.7 147.06,-127.7 150.16,-127.7 153.27,-130.8 153.27,-133.9 153.27,-133.9 153.27,-140.1 153.27,-140.1 153.27,-143.2 150.16,-146.3 147.06,-146.3"/>
<text text-anchor="middle" x="103.76" y="-134.3" font-family="Helvetica,sans-Serif" font-size="9.00">sort&#45;numbers.spec.js</text>
</a>
</g>
</g>
<!-- src/sort&#45;numbers/example&#45;built&#45;in&#45;sort/sort&#45;numbers.spec.js&#45;&gt;src/sort&#45;numbers/example&#45;built&#45;in&#45;sort/sort&#45;numbers.js -->
<g id="edge6" class="edge">
<title>src/sort&#45;numbers/example&#45;built&#45;in&#45;sort/sort&#45;numbers.spec.js&#45;&gt;src/sort&#45;numbers/example&#45;built&#45;in&#45;sort/sort&#45;numbers.js</title>
<path fill="none" stroke="#000000" stroke-width="2" stroke-opacity="0.200000" d="M153.43,-137C169.82,-137 188.02,-137 204.08,-137"/>
<polygon fill="#000000" fill-opacity="0.200000" stroke="#000000" stroke-width="2" stroke-opacity="0.200000" points="204.35,-139.1 210.35,-137 204.35,-134.9 204.35,-139.1"/>
</g>
<!-- src/split&#45;object/template&#45;solution/splitObject.js -->
<g id="node13" class="node">
<title>src/split&#45;object/template&#45;solution/splitObject.js</title>
<g id="a_node13"><a xlink:href="../src/split-object/template-solution/splitObject.js" xlink:title="splitObject.js">
<path fill="#ffffcc" stroke="black" d="M276.82,-50.3C276.82,-50.3 222.22,-50.3 222.22,-50.3 219.12,-50.3 216.02,-47.2 216.02,-44.1 216.02,-44.1 216.02,-37.9 216.02,-37.9 216.02,-34.8 219.12,-31.7 222.22,-31.7 222.22,-31.7 276.82,-31.7 276.82,-31.7 279.92,-31.7 283.02,-34.8 283.02,-37.9 283.02,-37.9 283.02,-44.1 283.02,-44.1 283.02,-47.2 279.92,-50.3 276.82,-50.3"/>
<text text-anchor="middle" x="249.52" y="-38.3" font-family="Helvetica,sans-Serif" font-size="9.00">splitObject.js</text>
</a>
</g>
</g>
<!-- src/split&#45;object/template&#45;solution/splitObject.spec.js -->
<g id="node14" class="node">
<title>src/split&#45;object/template&#45;solution/splitObject.spec.js</title>
<g id="a_node14"><a xlink:href="../src/split-object/template-solution/splitObject.spec.js" xlink:title="splitObject.spec.js">
<path fill="#ffffcc" stroke="black" d="M141.57,-50.3C141.57,-50.3 65.95,-50.3 65.95,-50.3 62.85,-50.3 59.75,-47.2 59.75,-44.1 59.75,-44.1 59.75,-37.9 59.75,-37.9 59.75,-34.8 62.85,-31.7 65.95,-31.7 65.95,-31.7 141.57,-31.7 141.57,-31.7 144.67,-31.7 147.77,-34.8 147.77,-37.9 147.77,-37.9 147.77,-44.1 147.77,-44.1 147.77,-47.2 144.67,-50.3 141.57,-50.3"/>
<text text-anchor="middle" x="103.76" y="-38.3" font-family="Helvetica,sans-Serif" font-size="9.00">splitObject.spec.js</text>
</a>
</g>
</g>
<!-- src/split&#45;object/template&#45;solution/splitObject.spec.js&#45;&gt;src/split&#45;object/template&#45;solution/splitObject.js -->
<g id="edge7" class="edge">
<title>src/split&#45;object/template&#45;solution/splitObject.spec.js&#45;&gt;src/split&#45;object/template&#45;solution/splitObject.js</title>
<path fill="none" stroke="#000000" stroke-width="2" stroke-opacity="0.200000" d="M147.89,-41C167.51,-41 190.54,-41 209.62,-41"/>
<polygon fill="#000000" fill-opacity="0.200000" stroke="#000000" stroke-width="2" stroke-opacity="0.200000" points="209.93,-43.1 215.93,-41 209.93,-38.9 209.93,-43.1"/>
</g>
</g>
</svg>
