<?xml version="1.0" encoding="UTF-8" standalone="no"?>
<!DOCTYPE svg PUBLIC "-//W3C//DTD SVG 1.1//EN"
 "http://www.w3.org/Graphics/SVG/1.1/DTD/svg11.dtd">
<!-- Generated by graphviz version 2.44.0 (20200408.0750)
 -->
<!-- Title: dependency&#45;cruiser output Pages: 1 -->
<svg width="351pt" height="897pt"
 viewBox="0.00 0.00 350.52 897.00" xmlns="http://www.w3.org/2000/svg" xmlns:xlink="http://www.w3.org/1999/xlink">
<g id="graph0" class="graph" transform="scale(1 1) rotate(0) translate(4 893)">
<title>dependency&#45;cruiser output</title>
<polygon fill="white" stroke="transparent" points="-4,4 -4,-893 346.52,-893 346.52,4 -4,4"/>
<g id="clust1" class="cluster">
<title>cluster_src</title>
<path fill="#ffffff" stroke="black" stroke-width="2" d="M20,-8C20,-8 322.52,-8 322.52,-8 328.52,-8 334.52,-14 334.52,-20 334.52,-20 334.52,-869 334.52,-869 334.52,-875 328.52,-881 322.52,-881 322.52,-881 20,-881 20,-881 14,-881 8,-875 8,-869 8,-869 8,-20 8,-20 8,-14 14,-8 20,-8"/>
<text text-anchor="middle" x="171.26" y="-868.9" font-family="Helvetica,sans-Serif" font-weight="bold" font-size="9.00">src</text>
</g>
<g id="clust2" class="cluster">
<title>cluster_src/deep&#45;flat</title>
<path fill="#ffffff" stroke="black" stroke-width="2" d="M42,-705C42,-705 300.52,-705 300.52,-705 306.52,-705 312.52,-711 312.52,-717 312.52,-717 312.52,-842 312.52,-842 312.52,-848 306.52,-854 300.52,-854 300.52,-854 42,-854 42,-854 36,-854 30,-848 30,-842 30,-842 30,-717 30,-717 30,-711 36,-705 42,-705"/>
<text text-anchor="middle" x="171.26" y="-841.9" font-family="Helvetica,sans-Serif" font-weight="bold" font-size="9.00">deep&#45;flat</text>
</g>
<g id="clust3" class="cluster">
<title>cluster_src/deep&#45;flat/template&#45;deep&#45;flat</title>
<path fill="#ffffff" stroke="black" stroke-width="2" d="M50,-774C50,-774 292.52,-774 292.52,-774 298.52,-774 304.52,-780 304.52,-786 304.52,-786 304.52,-815 304.52,-815 304.52,-821 298.52,-827 292.52,-827 292.52,-827 50,-827 50,-827 44,-827 38,-821 38,-815 38,-815 38,-786 38,-786 38,-780 44,-774 50,-774"/>
<text text-anchor="middle" x="171.26" y="-814.9" font-family="Helvetica,sans-Serif" font-weight="bold" font-size="9.00">template&#45;deep&#45;flat</text>
</g>
<g id="clust4" class="cluster">
<title>cluster_src/deep&#45;flat/template&#45;solution</title>
<path fill="#ffffff" stroke="black" stroke-width="2" d="M67,-713C67,-713 275.52,-713 275.52,-713 281.52,-713 287.52,-719 287.52,-725 287.52,-725 287.52,-754 287.52,-754 287.52,-760 281.52,-766 275.52,-766 275.52,-766 67,-766 67,-766 61,-766 55,-760 55,-754 55,-754 55,-725 55,-725 55,-719 61,-713 67,-713"/>
<text text-anchor="middle" x="171.26" y="-753.9" font-family="Helvetica,sans-Serif" font-weight="bold" font-size="9.00">template&#45;solution</text>
</g>
<g id="clust5" class="cluster">
<title>cluster_src/difference&#45;firewyni</title>
<path fill="#ffffff" stroke="black" stroke-width="2" d="M47.75,-644C47.75,-644 277.77,-644 277.77,-644 283.77,-644 289.77,-650 289.77,-656 289.77,-656 289.77,-685 289.77,-685 289.77,-691 283.77,-697 277.77,-697 277.77,-697 47.75,-697 47.75,-697 41.75,-697 35.75,-691 35.75,-685 35.75,-685 35.75,-656 35.75,-656 35.75,-650 41.75,-644 47.75,-644"/>
<text text-anchor="middle" x="162.76" y="-684.9" font-family="Helvetica,sans-Serif" font-weight="bold" font-size="9.00">difference&#45;firewyni</text>
</g>
<g id="clust6" class="cluster">
<title>cluster_src/difference</title>
<path fill="#ffffff" stroke="black" stroke-width="2" d="M28,-426C28,-426 314.52,-426 314.52,-426 320.52,-426 326.52,-432 326.52,-438 326.52,-438 326.52,-624 326.52,-624 326.52,-630 320.52,-636 314.52,-636 314.52,-636 28,-636 28,-636 22,-636 16,-630 16,-624 16,-624 16,-438 16,-438 16,-432 22,-426 28,-426"/>
<text text-anchor="middle" x="171.26" y="-623.9" font-family="Helvetica,sans-Serif" font-weight="bold" font-size="9.00">difference</text>
</g>
<g id="clust7" class="cluster">
<title>cluster_src/difference/difference&#45;moamin</title>
<path fill="#ffffff" stroke="black" stroke-width="2" d="M64.75,-556C64.75,-556 277.77,-556 277.77,-556 283.77,-556 289.77,-562 289.77,-568 289.77,-568 289.77,-597 289.77,-597 289.77,-603 283.77,-609 277.77,-609 277.77,-609 64.75,-609 64.75,-609 58.75,-609 52.75,-603 52.75,-597 52.75,-597 52.75,-568 52.75,-568 52.75,-562 58.75,-556 64.75,-556"/>
<text text-anchor="middle" x="171.26" y="-596.9" font-family="Helvetica,sans-Serif" font-weight="bold" font-size="9.00">difference&#45;moamin</text>
</g>
<g id="clust8" class="cluster">
<title>cluster_src/difference/difference&#45;tatsiana</title>
<path fill="#ffffff" stroke="black" stroke-width="2" d="M36,-495C36,-495 306.52,-495 306.52,-495 312.52,-495 318.52,-501 318.52,-507 318.52,-507 318.52,-536 318.52,-536 318.52,-542 312.52,-548 306.52,-548 306.52,-548 36,-548 36,-548 30,-548 24,-542 24,-536 24,-536 24,-507 24,-507 24,-501 30,-495 36,-495"/>
<text text-anchor="middle" x="171.26" y="-535.9" font-family="Helvetica,sans-Serif" font-weight="bold" font-size="9.00">difference&#45;tatsiana</text>
</g>
<g id="clust9" class="cluster">
<title>cluster_src/difference/template&#45;solution&#45;Moamin</title>
<path fill="#ffffff" stroke="black" stroke-width="2" d="M64.75,-434C64.75,-434 277.77,-434 277.77,-434 283.77,-434 289.77,-440 289.77,-446 289.77,-446 289.77,-475 289.77,-475 289.77,-481 283.77,-487 277.77,-487 277.77,-487 64.75,-487 64.75,-487 58.75,-487 52.75,-481 52.75,-475 52.75,-475 52.75,-446 52.75,-446 52.75,-440 58.75,-434 64.75,-434"/>
<text text-anchor="middle" x="171.26" y="-474.9" font-family="Helvetica,sans-Serif" font-weight="bold" font-size="9.00">template&#45;solution&#45;Moamin</text>
</g>
<g id="clust10" class="cluster">
<title>cluster_src/intersection</title>
<path fill="#ffffff" stroke="black" stroke-width="2" d="M36.5,-269C36.5,-269 289.02,-269 289.02,-269 295.02,-269 301.02,-275 301.02,-281 301.02,-281 301.02,-406 301.02,-406 301.02,-412 295.02,-418 289.02,-418 289.02,-418 36.5,-418 36.5,-418 30.5,-418 24.5,-412 24.5,-406 24.5,-406 24.5,-281 24.5,-281 24.5,-275 30.5,-269 36.5,-269"/>
<text text-anchor="middle" x="162.76" y="-405.9" font-family="Helvetica,sans-Serif" font-weight="bold" font-size="9.00">intersection</text>
</g>
<g id="clust11" class="cluster">
<title>cluster_src/intersection/intersection&#45;firewyni</title>
<path fill="#ffffff" stroke="black" stroke-width="2" d="M44.5,-338C44.5,-338 281.02,-338 281.02,-338 287.02,-338 293.02,-344 293.02,-350 293.02,-350 293.02,-379 293.02,-379 293.02,-385 287.02,-391 281.02,-391 281.02,-391 44.5,-391 44.5,-391 38.5,-391 32.5,-385 32.5,-379 32.5,-379 32.5,-350 32.5,-350 32.5,-344 38.5,-338 44.5,-338"/>
<text text-anchor="middle" x="162.76" y="-378.9" font-family="Helvetica,sans-Serif" font-weight="bold" font-size="9.00">intersection&#45;firewyni</text>
</g>
<g id="clust12" class="cluster">
<title>cluster_src/intersection/template&#45;solution</title>
<path fill="#ffffff" stroke="black" stroke-width="2" d="M61.5,-277C61.5,-277 281.02,-277 281.02,-277 287.02,-277 293.02,-283 293.02,-289 293.02,-289 293.02,-318 293.02,-318 293.02,-324 287.02,-330 281.02,-330 281.02,-330 61.5,-330 61.5,-330 55.5,-330 49.5,-324 49.5,-318 49.5,-318 49.5,-289 49.5,-289 49.5,-283 55.5,-277 61.5,-277"/>
<text text-anchor="middle" x="171.26" y="-317.9" font-family="Helvetica,sans-Serif" font-weight="bold" font-size="9.00">template&#45;solution</text>
</g>
<g id="clust13" class="cluster">
<title>cluster_src/sort&#45;numbers</title>
<path fill="#ffffff" stroke="black" stroke-width="2" d="M50,-173C50,-173 292.52,-173 292.52,-173 298.52,-173 304.52,-179 304.52,-185 304.52,-185 304.52,-249 304.52,-249 304.52,-255 298.52,-261 292.52,-261 292.52,-261 50,-261 50,-261 44,-261 38,-255 38,-249 38,-249 38,-185 38,-185 38,-179 44,-173 50,-173"/>
<text text-anchor="middle" x="171.26" y="-248.9" font-family="Helvetica,sans-Serif" font-weight="bold" font-size="9.00">sort&#45;numbers</text>
</g>
<g id="clust14" class="cluster">
<title>cluster_src/sort&#45;numbers/example&#45;built&#45;in&#45;sort</title>
<path fill="#ffffff" stroke="black" stroke-width="2" d="M58,-181C58,-181 284.52,-181 284.52,-181 290.52,-181 296.52,-187 296.52,-193 296.52,-193 296.52,-222 296.52,-222 296.52,-228 290.52,-234 284.52,-234 284.52,-234 58,-234 58,-234 52,-234 46,-228 46,-222 46,-222 46,-193 46,-193 46,-187 52,-181 58,-181"/>
<text text-anchor="middle" x="171.26" y="-221.9" font-family="Helvetica,sans-Serif" font-weight="bold" font-size="9.00">example&#45;built&#45;in&#45;sort</text>
</g>
<g id="clust15" class="cluster">
<title>cluster_src/split&#45;object</title>
<path fill="#ffffff" stroke="black" stroke-width="2" d="M55,-16C55,-16 287.52,-16 287.52,-16 293.52,-16 299.52,-22 299.52,-28 299.52,-28 299.52,-153 299.52,-153 299.52,-159 293.52,-165 287.52,-165 287.52,-165 55,-165 55,-165 49,-165 43,-159 43,-153 43,-153 43,-28 43,-28 43,-22 49,-16 55,-16"/>
<text text-anchor="middle" x="171.26" y="-152.9" font-family="Helvetica,sans-Serif" font-weight="bold" font-size="9.00">split&#45;object</text>
</g>
<g id="clust16" class="cluster">
<title>cluster_src/split&#45;object/split&#45;object&#45;deepa</title>
<path fill="#ffffff" stroke="black" stroke-width="2" d="M63,-85C63,-85 279.52,-85 279.52,-85 285.52,-85 291.52,-91 291.52,-97 291.52,-97 291.52,-126 291.52,-126 291.52,-132 285.52,-138 279.52,-138 279.52,-138 63,-138 63,-138 57,-138 51,-132 51,-126 51,-126 51,-97 51,-97 51,-91 57,-85 63,-85"/>
<text text-anchor="middle" x="171.26" y="-125.9" font-family="Helvetica,sans-Serif" font-weight="bold" font-size="9.00">split&#45;object&#45;deepa</text>
</g>
<g id="clust17" class="cluster">
<title>cluster_src/split&#45;object/template&#45;solution</title>
<path fill="#ffffff" stroke="black" stroke-width="2" d="M63.5,-24C63.5,-24 279.02,-24 279.02,-24 285.02,-24 291.02,-30 291.02,-36 291.02,-36 291.02,-65 291.02,-65 291.02,-71 285.02,-77 279.02,-77 279.02,-77 63.5,-77 63.5,-77 57.5,-77 51.5,-71 51.5,-65 51.5,-65 51.5,-36 51.5,-36 51.5,-30 57.5,-24 63.5,-24"/>
<text text-anchor="middle" x="171.26" y="-64.9" font-family="Helvetica,sans-Serif" font-weight="bold" font-size="9.00">template&#45;solution</text>
</g>
<!-- src/deep&#45;flat/template&#45;deep&#45;flat/solution&#45;deep&#45;flat.js -->
<g id="node1" class="node">
<title>src/deep&#45;flat/template&#45;deep&#45;flat/solution&#45;deep&#45;flat.js</title>
<g id="a_node1"><a xlink:href="../src/deep-flat/template-deep-flat/solution-deep-flat.js" xlink:title="solution&#45;deep&#45;flat.js">
<path fill="#ffffcc" stroke="black" d="M290.33,-800.3C290.33,-800.3 208.71,-800.3 208.71,-800.3 205.61,-800.3 202.51,-797.2 202.51,-794.1 202.51,-794.1 202.51,-787.9 202.51,-787.9 202.51,-784.8 205.61,-781.7 208.71,-781.7 208.71,-781.7 290.33,-781.7 290.33,-781.7 293.43,-781.7 296.53,-784.8 296.53,-787.9 296.53,-787.9 296.53,-794.1 296.53,-794.1 296.53,-797.2 293.43,-800.3 290.33,-800.3"/>
<text text-anchor="middle" x="249.52" y="-788.3" font-family="Helvetica,sans-Serif" font-size="9.00">solution&#45;deep&#45;flat.js</text>
</a>
</g>
</g>
<!-- src/deep&#45;flat/template&#45;deep&#45;flat/solution&#45;deep&#45;flat.spec.js -->
<g id="node2" class="node">
<title>src/deep&#45;flat/template&#45;deep&#45;flat/solution&#45;deep&#45;flat.spec.js</title>
<g id="a_node2"><a xlink:href="../src/deep-flat/template-deep-flat/solution-deep-flat.spec.js" xlink:title="solution&#45;deep&#45;flat.spec.js">
<path fill="#ffffcc" stroke="black" d="M155.08,-800.3C155.08,-800.3 52.44,-800.3 52.44,-800.3 49.34,-800.3 46.24,-797.2 46.24,-794.1 46.24,-794.1 46.24,-787.9 46.24,-787.9 46.24,-784.8 49.34,-781.7 52.44,-781.7 52.44,-781.7 155.08,-781.7 155.08,-781.7 158.18,-781.7 161.28,-784.8 161.28,-787.9 161.28,-787.9 161.28,-794.1 161.28,-794.1 161.28,-797.2 158.18,-800.3 155.08,-800.3"/>
<text text-anchor="middle" x="103.76" y="-788.3" font-family="Helvetica,sans-Serif" font-size="9.00">solution&#45;deep&#45;flat.spec.js</text>
</a>
</g>
</g>
<!-- src/deep&#45;flat/template&#45;deep&#45;flat/solution&#45;deep&#45;flat.spec.js&#45;&gt;src/deep&#45;flat/template&#45;deep&#45;flat/solution&#45;deep&#45;flat.js -->
<g id="edge1" class="edge">
<title>src/deep&#45;flat/template&#45;deep&#45;flat/solution&#45;deep&#45;flat.spec.js&#45;&gt;src/deep&#45;flat/template&#45;deep&#45;flat/solution&#45;deep&#45;flat.js</title>
<path fill="none" stroke="#000000" stroke-width="2" stroke-opacity="0.200000" d="M161.58,-791C172.97,-791 184.88,-791 196.12,-791"/>
<polygon fill="#000000" fill-opacity="0.200000" stroke="#000000" stroke-width="2" stroke-opacity="0.200000" points="196.28,-793.1 202.28,-791 196.28,-788.9 196.28,-793.1"/>
</g>
<!-- src/deep&#45;flat/template&#45;solution/deepFlat.js -->
<g id="node3" class="node">
<title>src/deep&#45;flat/template&#45;solution/deepFlat.js</title>
<g id="a_node3"><a xlink:href="../src/deep-flat/template-solution/deepFlat.js" xlink:title="deepFlat.js">
<path fill="#ffffcc" stroke="black" d="M273.33,-739.3C273.33,-739.3 225.71,-739.3 225.71,-739.3 222.61,-739.3 219.51,-736.2 219.51,-733.1 219.51,-733.1 219.51,-726.9 219.51,-726.9 219.51,-723.8 222.61,-720.7 225.71,-720.7 225.71,-720.7 273.33,-720.7 273.33,-720.7 276.43,-720.7 279.53,-723.8 279.53,-726.9 279.53,-726.9 279.53,-733.1 279.53,-733.1 279.53,-736.2 276.43,-739.3 273.33,-739.3"/>
<text text-anchor="middle" x="249.52" y="-727.3" font-family="Helvetica,sans-Serif" font-size="9.00">deepFlat.js</text>
</a>
</g>
</g>
<!-- src/deep&#45;flat/template&#45;solution/deepFlat.spec.js -->
<g id="node4" class="node">
<title>src/deep&#45;flat/template&#45;solution/deepFlat.spec.js</title>
<g id="a_node4"><a xlink:href="../src/deep-flat/template-solution/deepFlat.spec.js" xlink:title="deepFlat.spec.js">
<path fill="#ffffcc" stroke="black" d="M138.08,-739.3C138.08,-739.3 69.44,-739.3 69.44,-739.3 66.34,-739.3 63.24,-736.2 63.24,-733.1 63.24,-733.1 63.24,-726.9 63.24,-726.9 63.24,-723.8 66.34,-720.7 69.44,-720.7 69.44,-720.7 138.08,-720.7 138.08,-720.7 141.18,-720.7 144.28,-723.8 144.28,-726.9 144.28,-726.9 144.28,-733.1 144.28,-733.1 144.28,-736.2 141.18,-739.3 138.08,-739.3"/>
<text text-anchor="middle" x="103.76" y="-727.3" font-family="Helvetica,sans-Serif" font-size="9.00">deepFlat.spec.js</text>
</a>
</g>
</g>
<!-- src/deep&#45;flat/template&#45;solution/deepFlat.spec.js&#45;&gt;src/deep&#45;flat/template&#45;solution/deepFlat.js -->
<g id="edge2" class="edge">
<title>src/deep&#45;flat/template&#45;solution/deepFlat.spec.js&#45;&gt;src/deep&#45;flat/template&#45;solution/deepFlat.js</title>
<path fill="none" stroke="#000000" stroke-width="2" stroke-opacity="0.200000" d="M144.42,-730C166.06,-730 192.6,-730 213.47,-730"/>
<polygon fill="#000000" fill-opacity="0.200000" stroke="#000000" stroke-width="2" stroke-opacity="0.200000" points="213.47,-732.1 219.47,-730 213.47,-727.9 213.47,-732.1"/>
</g>
<!-- src/difference&#45;firewyni/difference.js -->
<g id="node5" class="node">
<title>src/difference&#45;firewyni/difference.js</title>
<g id="a_node5"><a xlink:href="../src/difference-firewyni/difference.js" xlink:title="difference.js">
<path fill="#ffffcc" stroke="black" d="M275.33,-670.3C275.33,-670.3 223.71,-670.3 223.71,-670.3 220.61,-670.3 217.51,-667.2 217.51,-664.1 217.51,-664.1 217.51,-657.9 217.51,-657.9 217.51,-654.8 220.61,-651.7 223.71,-651.7 223.71,-651.7 275.33,-651.7 275.33,-651.7 278.43,-651.7 281.53,-654.8 281.53,-657.9 281.53,-657.9 281.53,-664.1 281.53,-664.1 281.53,-667.2 278.43,-670.3 275.33,-670.3"/>
<text text-anchor="middle" x="249.52" y="-658.3" font-family="Helvetica,sans-Serif" font-size="9.00">difference.js</text>
</a>
</g>
</g>
<!-- src/difference&#45;firewyni/solution&#45;difference.spec.js -->
<g id="node6" class="node">
<title>src/difference&#45;firewyni/solution&#45;difference.spec.js</title>
<g id="a_node6"><a xlink:href="../src/difference-firewyni/solution-difference.spec.js" xlink:title="solution&#45;difference.spec.js">
<path fill="#ffffcc" stroke="black" d="M157.58,-670.3C157.58,-670.3 49.94,-670.3 49.94,-670.3 46.84,-670.3 43.74,-667.2 43.74,-664.1 43.74,-664.1 43.74,-657.9 43.74,-657.9 43.74,-654.8 46.84,-651.7 49.94,-651.7 49.94,-651.7 157.58,-651.7 157.58,-651.7 160.68,-651.7 163.78,-654.8 163.78,-657.9 163.78,-657.9 163.78,-664.1 163.78,-664.1 163.78,-667.2 160.68,-670.3 157.58,-670.3"/>
<text text-anchor="middle" x="103.76" y="-658.3" font-family="Helvetica,sans-Serif" font-size="9.00">solution&#45;difference.spec.js</text>
</a>
</g>
</g>
<!-- src/difference&#45;firewyni/solution&#45;difference.spec.js&#45;&gt;src/difference&#45;firewyni/difference.js -->
<g id="edge3" class="edge">
<title>src/difference&#45;firewyni/solution&#45;difference.spec.js&#45;&gt;src/difference&#45;firewyni/difference.js</title>
<path fill="none" stroke="#000000" stroke-width="2" stroke-opacity="0.200000" d="M164.06,-661C180.03,-661 196.86,-661 211.25,-661"/>
<polygon fill="#000000" fill-opacity="0.200000" stroke="#000000" stroke-width="2" stroke-opacity="0.200000" points="211.26,-663.1 217.26,-661 211.26,-658.9 211.26,-663.1"/>
</g>
<!-- src/difference/difference&#45;moamin/difference.js -->
<g id="node7" class="node">
<title>src/difference/difference&#45;moamin/difference.js</title>
<g id="a_node7"><a xlink:href="../src/difference/difference-moamin/difference.js" xlink:title="difference.js">
<path fill="#ffffcc" stroke="black" d="M275.33,-582.3C275.33,-582.3 223.71,-582.3 223.71,-582.3 220.61,-582.3 217.51,-579.2 217.51,-576.1 217.51,-576.1 217.51,-569.9 217.51,-569.9 217.51,-566.8 220.61,-563.7 223.71,-563.7 223.71,-563.7 275.33,-563.7 275.33,-563.7 278.43,-563.7 281.53,-566.8 281.53,-569.9 281.53,-569.9 281.53,-576.1 281.53,-576.1 281.53,-579.2 278.43,-582.3 275.33,-582.3"/>
<text text-anchor="middle" x="249.52" y="-570.3" font-family="Helvetica,sans-Serif" font-size="9.00">difference.js</text>
</a>
</g>
</g>
<!-- src/difference/difference&#45;moamin/difference.spec.js -->
<g id="node8" class="node">
<title>src/difference/difference&#45;moamin/difference.spec.js</title>
<g id="a_node8"><a xlink:href="../src/difference/difference-moamin/difference.spec.js" xlink:title="difference.spec.js">
<path fill="#ffffcc" stroke="black" d="M140.57,-582.3C140.57,-582.3 66.94,-582.3 66.94,-582.3 63.84,-582.3 60.74,-579.2 60.74,-576.1 60.74,-576.1 60.74,-569.9 60.74,-569.9 60.74,-566.8 63.84,-563.7 66.94,-563.7 66.94,-563.7 140.57,-563.7 140.57,-563.7 143.67,-563.7 146.77,-566.8 146.77,-569.9 146.77,-569.9 146.77,-576.1 146.77,-576.1 146.77,-579.2 143.67,-582.3 140.57,-582.3"/>
<text text-anchor="middle" x="103.76" y="-570.3" font-family="Helvetica,sans-Serif" font-size="9.00">difference.spec.js</text>
</a>
</g>
</g>
<!-- src/difference/difference&#45;moamin/difference.spec.js&#45;&gt;src/difference/difference&#45;moamin/difference.js -->
<g id="edge4" class="edge">
<title>src/difference/difference&#45;moamin/difference.spec.js&#45;&gt;src/difference/difference&#45;moamin/difference.js</title>
<path fill="none" stroke="#000000" stroke-width="2" stroke-opacity="0.200000" d="M147.11,-573C167.44,-573 191.58,-573 211.21,-573"/>
<polygon fill="#000000" fill-opacity="0.200000" stroke="#000000" stroke-width="2" stroke-opacity="0.200000" points="211.41,-575.1 217.41,-573 211.41,-570.9 211.41,-575.1"/>
</g>
<!-- src/difference/difference&#45;tatsiana/solution&#45;array&#45;difference.js -->
<g id="node9" class="node">
<title>src/difference/difference&#45;tatsiana/solution&#45;array&#45;difference.js</title>
<g id="a_node9"><a xlink:href="../src/difference/difference-tatsiana/solution-array-difference.js" xlink:title="solution&#45;array&#45;difference.js">
<path fill="#ffffcc" stroke="black" d="M304.33,-521.3C304.33,-521.3 194.71,-521.3 194.71,-521.3 191.61,-521.3 188.51,-518.2 188.51,-515.1 188.51,-515.1 188.51,-508.9 188.51,-508.9 188.51,-505.8 191.61,-502.7 194.71,-502.7 194.71,-502.7 304.33,-502.7 304.33,-502.7 307.43,-502.7 310.53,-505.8 310.53,-508.9 310.53,-508.9 310.53,-515.1 310.53,-515.1 310.53,-518.2 307.43,-521.3 304.33,-521.3"/>
<text text-anchor="middle" x="249.52" y="-509.3" font-family="Helvetica,sans-Serif" font-size="9.00">solution&#45;array&#45;difference.js</text>
</a>
</g>
</g>
<!-- src/difference/difference&#45;tatsiana/solution&#45;array&#45;difference.spec.js -->
<g id="node10" class="node">
<title>src/difference/difference&#45;tatsiana/solution&#45;array&#45;difference.spec.js</title>
<g id="a_node10"><a xlink:href="../src/difference/difference-tatsiana/solution-array-difference.spec.js" xlink:title="solution&#45;array&#45;difference.spec.js">
<path fill="#ffffcc" stroke="black" d="M169.07,-521.3C169.07,-521.3 38.44,-521.3 38.44,-521.3 35.34,-521.3 32.24,-518.2 32.24,-515.1 32.24,-515.1 32.24,-508.9 32.24,-508.9 32.24,-505.8 35.34,-502.7 38.44,-502.7 38.44,-502.7 169.07,-502.7 169.07,-502.7 172.17,-502.7 175.27,-505.8 175.27,-508.9 175.27,-508.9 175.27,-515.1 175.27,-515.1 175.27,-518.2 172.17,-521.3 169.07,-521.3"/>
<text text-anchor="middle" x="103.76" y="-509.3" font-family="Helvetica,sans-Serif" font-size="9.00">solution&#45;array&#45;difference.spec.js</text>
</a>
</g>
</g>
<!-- src/difference/difference&#45;tatsiana/solution&#45;array&#45;difference.spec.js&#45;&gt;src/difference/difference&#45;tatsiana/solution&#45;array&#45;difference.js -->
<g id="edge5" class="edge">
<title>src/difference/difference&#45;tatsiana/solution&#45;array&#45;difference.spec.js&#45;&gt;src/difference/difference&#45;tatsiana/solution&#45;array&#45;difference.js</title>
<path fill="none" stroke="#000000" stroke-width="2" stroke-opacity="0.200000" d="M175.37,-512C177.5,-512 179.64,-512 181.76,-512"/>
<polygon fill="#000000" fill-opacity="0.200000" stroke="#000000" stroke-width="2" stroke-opacity="0.200000" points="182.11,-514.1 188.11,-512 182.11,-509.9 182.11,-514.1"/>
</g>
<!-- src/difference/template&#45;solution&#45;Moamin/difference.js -->
<g id="node11" class="node">
<title>src/difference/template&#45;solution&#45;Moamin/difference.js</title>
<g id="a_node11"><a xlink:href="../src/difference/template-solution-Moamin/difference.js" xlink:title="difference.js">
<path fill="#ffffcc" stroke="black" d="M275.33,-460.3C275.33,-460.3 223.71,-460.3 223.71,-460.3 220.61,-460.3 217.51,-457.2 217.51,-454.1 217.51,-454.1 217.51,-447.9 217.51,-447.9 217.51,-444.8 220.61,-441.7 223.71,-441.7 223.71,-441.7 275.33,-441.7 275.33,-441.7 278.43,-441.7 281.53,-444.8 281.53,-447.9 281.53,-447.9 281.53,-454.1 281.53,-454.1 281.53,-457.2 278.43,-460.3 275.33,-460.3"/>
<text text-anchor="middle" x="249.52" y="-448.3" font-family="Helvetica,sans-Serif" font-size="9.00">difference.js</text>
</a>
</g>
</g>
<!-- src/difference/template&#45;solution&#45;Moamin/difference.spec.js -->
<g id="node12" class="node">
<title>src/difference/template&#45;solution&#45;Moamin/difference.spec.js</title>
<g id="a_node12"><a xlink:href="../src/difference/template-solution-Moamin/difference.spec.js" xlink:title="difference.spec.js">
<path fill="#ffffcc" stroke="black" d="M140.57,-460.3C140.57,-460.3 66.94,-460.3 66.94,-460.3 63.84,-460.3 60.74,-457.2 60.74,-454.1 60.74,-454.1 60.74,-447.9 60.74,-447.9 60.74,-444.8 63.84,-441.7 66.94,-441.7 66.94,-441.7 140.57,-441.7 140.57,-441.7 143.67,-441.7 146.77,-444.8 146.77,-447.9 146.77,-447.9 146.77,-454.1 146.77,-454.1 146.77,-457.2 143.67,-460.3 140.57,-460.3"/>
<text text-anchor="middle" x="103.76" y="-448.3" font-family="Helvetica,sans-Serif" font-size="9.00">difference.spec.js</text>
</a>
</g>
</g>
<!-- src/difference/template&#45;solution&#45;Moamin/difference.spec.js&#45;&gt;src/difference/template&#45;solution&#45;Moamin/difference.js -->
<g id="edge6" class="edge">
<title>src/difference/template&#45;solution&#45;Moamin/difference.spec.js&#45;&gt;src/difference/template&#45;solution&#45;Moamin/difference.js</title>
<path fill="none" stroke="#000000" stroke-width="2" stroke-opacity="0.200000" d="M147.11,-451C167.44,-451 191.58,-451 211.21,-451"/>
<polygon fill="#000000" fill-opacity="0.200000" stroke="#000000" stroke-width="2" stroke-opacity="0.200000" points="211.41,-453.1 217.41,-451 211.41,-448.9 211.41,-453.1"/>
</g>
<!-- src/intersection/intersection&#45;firewyni/intersection.js -->
<g id="node13" class="node">
<title>src/intersection/intersection&#45;firewyni/intersection.js</title>
<g id="a_node13"><a xlink:href="../src/intersection/intersection-firewyni/intersection.js" xlink:title="intersection.js">
<path fill="#ffffcc" stroke="black" d="M278.82,-364.3C278.82,-364.3 220.21,-364.3 220.21,-364.3 217.11,-364.3 214.01,-361.2 214.01,-358.1 214.01,-358.1 214.01,-351.9 214.01,-351.9 214.01,-348.8 217.11,-345.7 220.21,-345.7 220.21,-345.7 278.82,-345.7 278.82,-345.7 281.92,-345.7 285.02,-348.8 285.02,-351.9 285.02,-351.9 285.02,-358.1 285.02,-358.1 285.02,-361.2 281.92,-364.3 278.82,-364.3"/>
<text text-anchor="middle" x="249.52" y="-352.3" font-family="Helvetica,sans-Serif" font-size="9.00">intersection.js</text>
</a>
</g>
</g>
<!-- src/intersection/intersection&#45;firewyni/solution&#45;intersection.spec.js -->
<g id="node14" class="node">
<title>src/intersection/intersection&#45;firewyni/solution&#45;intersection.spec.js</title>
<g id="a_node14"><a xlink:href="../src/intersection/intersection-firewyni/solution-intersection.spec.js" xlink:title="solution&#45;intersection.spec.js">
<path fill="#ffffcc" stroke="black" d="M160.57,-364.3C160.57,-364.3 46.94,-364.3 46.94,-364.3 43.84,-364.3 40.74,-361.2 40.74,-358.1 40.74,-358.1 40.74,-351.9 40.74,-351.9 40.74,-348.8 43.84,-345.7 46.94,-345.7 46.94,-345.7 160.57,-345.7 160.57,-345.7 163.68,-345.7 166.78,-348.8 166.78,-351.9 166.78,-351.9 166.78,-358.1 166.78,-358.1 166.78,-361.2 163.68,-364.3 160.57,-364.3"/>
<text text-anchor="middle" x="103.76" y="-352.3" font-family="Helvetica,sans-Serif" font-size="9.00">solution&#45;intersection.spec.js</text>
</a>
</g>
</g>
<!-- src/intersection/intersection&#45;firewyni/solution&#45;intersection.spec.js&#45;&gt;src/intersection/intersection&#45;firewyni/intersection.js -->
<g id="edge7" class="edge">
<title>src/intersection/intersection&#45;firewyni/solution&#45;intersection.spec.js&#45;&gt;src/intersection/intersection&#45;firewyni/intersection.js</title>
<path fill="none" stroke="#000000" stroke-width="2" stroke-opacity="0.200000" d="M166.98,-355C180.8,-355 195.11,-355 207.81,-355"/>
<polygon fill="#000000" fill-opacity="0.200000" stroke="#000000" stroke-width="2" stroke-opacity="0.200000" points="207.91,-357.1 213.91,-355 207.91,-352.9 207.91,-357.1"/>
</g>
<!-- src/intersection/template&#45;solution/intersection.js -->
<g id="node15" class="node">
<title>src/intersection/template&#45;solution/intersection.js</title>
<g id="a_node15"><a xlink:href="../src/intersection/template-solution/intersection.js" xlink:title="intersection.js">
<path fill="#ffffcc" stroke="black" d="M278.82,-303.3C278.82,-303.3 220.21,-303.3 220.21,-303.3 217.11,-303.3 214.01,-300.2 214.01,-297.1 214.01,-297.1 214.01,-290.9 214.01,-290.9 214.01,-287.8 217.11,-284.7 220.21,-284.7 220.21,-284.7 278.82,-284.7 278.82,-284.7 281.92,-284.7 285.02,-287.8 285.02,-290.9 285.02,-290.9 285.02,-297.1 285.02,-297.1 285.02,-300.2 281.92,-303.3 278.82,-303.3"/>
<text text-anchor="middle" x="249.52" y="-291.3" font-family="Helvetica,sans-Serif" font-size="9.00">intersection.js</text>
</a>
</g>
</g>
<!-- src/intersection/template&#45;solution/intersection.spec.js -->
<g id="node16" class="node">
<title>src/intersection/template&#45;solution/intersection.spec.js</title>
<g id="a_node16"><a xlink:href="../src/intersection/template-solution/intersection.spec.js" xlink:title="intersection.spec.js">
<path fill="#ffffcc" stroke="black" d="M143.57,-303.3C143.57,-303.3 63.94,-303.3 63.94,-303.3 60.84,-303.3 57.74,-300.2 57.74,-297.1 57.74,-297.1 57.74,-290.9 57.74,-290.9 57.74,-287.8 60.84,-284.7 63.94,-284.7 63.94,-284.7 143.57,-284.7 143.57,-284.7 146.67,-284.7 149.77,-287.8 149.77,-290.9 149.77,-290.9 149.77,-297.1 149.77,-297.1 149.77,-300.2 146.67,-303.3 143.57,-303.3"/>
<text text-anchor="middle" x="103.76" y="-291.3" font-family="Helvetica,sans-Serif" font-size="9.00">intersection.spec.js</text>
</a>
</g>
</g>
<!-- src/intersection/template&#45;solution/intersection.spec.js&#45;&gt;src/intersection/template&#45;solution/intersection.js -->
<g id="edge8" class="edge">
<title>src/intersection/template&#45;solution/intersection.spec.js&#45;&gt;src/intersection/template&#45;solution/intersection.js</title>
<path fill="none" stroke="#000000" stroke-width="2" stroke-opacity="0.200000" d="M149.85,-294C168.18,-294 189.23,-294 207.17,-294"/>
<polygon fill="#000000" fill-opacity="0.200000" stroke="#000000" stroke-width="2" stroke-opacity="0.200000" points="207.62,-296.1 213.62,-294 207.62,-291.9 207.62,-296.1"/>
</g>
<!-- src/sort&#45;numbers/example&#45;built&#45;in&#45;sort/sort&#45;numbers.js -->
<g id="node17" class="node">
<title>src/sort&#45;numbers/example&#45;built&#45;in&#45;sort/sort&#45;numbers.js</title>
<g id="a_node17"><a xlink:href="../src/sort-numbers/example-built-in-sort/sort-numbers.js" xlink:title="sort&#45;numbers.js">
<path fill="#ffffcc" stroke="black" d="M282.32,-207.3C282.32,-207.3 216.72,-207.3 216.72,-207.3 213.62,-207.3 210.52,-204.2 210.52,-201.1 210.52,-201.1 210.52,-194.9 210.52,-194.9 210.52,-191.8 213.62,-188.7 216.72,-188.7 216.72,-188.7 282.32,-188.7 282.32,-188.7 285.42,-188.7 288.52,-191.8 288.52,-194.9 288.52,-194.9 288.52,-201.1 288.52,-201.1 288.52,-204.2 285.42,-207.3 282.32,-207.3"/>
<text text-anchor="middle" x="249.52" y="-195.3" font-family="Helvetica,sans-Serif" font-size="9.00">sort&#45;numbers.js</text>
</a>
</g>
</g>
<!-- src/sort&#45;numbers/example&#45;built&#45;in&#45;sort/sort&#45;numbers.spec.js -->
<g id="node18" class="node">
<title>src/sort&#45;numbers/example&#45;built&#45;in&#45;sort/sort&#45;numbers.spec.js</title>
<g id="a_node18"><a xlink:href="../src/sort-numbers/example-built-in-sort/sort-numbers.spec.js" xlink:title="sort&#45;numbers.spec.js">
<path fill="#ffffcc" stroke="black" d="M147.06,-207.3C147.06,-207.3 60.45,-207.3 60.45,-207.3 57.35,-207.3 54.25,-204.2 54.25,-201.1 54.25,-201.1 54.25,-194.9 54.25,-194.9 54.25,-191.8 57.35,-188.7 60.45,-188.7 60.45,-188.7 147.06,-188.7 147.06,-188.7 150.16,-188.7 153.27,-191.8 153.27,-194.9 153.27,-194.9 153.27,-201.1 153.27,-201.1 153.27,-204.2 150.16,-207.3 147.06,-207.3"/>
<text text-anchor="middle" x="103.76" y="-195.3" font-family="Helvetica,sans-Serif" font-size="9.00">sort&#45;numbers.spec.js</text>
</a>
</g>
</g>
<!-- src/sort&#45;numbers/example&#45;built&#45;in&#45;sort/sort&#45;numbers.spec.js&#45;&gt;src/sort&#45;numbers/example&#45;built&#45;in&#45;sort/sort&#45;numbers.js -->
<g id="edge9" class="edge">
<title>src/sort&#45;numbers/example&#45;built&#45;in&#45;sort/sort&#45;numbers.spec.js&#45;&gt;src/sort&#45;numbers/example&#45;built&#45;in&#45;sort/sort&#45;numbers.js</title>
<path fill="none" stroke="#000000" stroke-width="2" stroke-opacity="0.200000" d="M153.43,-198C169.82,-198 188.02,-198 204.08,-198"/>
<polygon fill="#000000" fill-opacity="0.200000" stroke="#000000" stroke-width="2" stroke-opacity="0.200000" points="204.35,-200.1 210.35,-198 204.35,-195.9 204.35,-200.1"/>
</g>
<!-- src/split&#45;object/split&#45;object&#45;deepa/split&#45;object.js -->
<g id="node19" class="node">
<title>src/split&#45;object/split&#45;object&#45;deepa/split&#45;object.js</title>
<g id="a_node19"><a xlink:href="../src/split-object/split-object-deepa/split-object.js" xlink:title="split&#45;object.js">
<path fill="#ffffcc" stroke="black" d="M277.32,-111.3C277.32,-111.3 221.72,-111.3 221.72,-111.3 218.62,-111.3 215.52,-108.2 215.52,-105.1 215.52,-105.1 215.52,-98.9 215.52,-98.9 215.52,-95.8 218.62,-92.7 221.72,-92.7 221.72,-92.7 277.32,-92.7 277.32,-92.7 280.42,-92.7 283.52,-95.8 283.52,-98.9 283.52,-98.9 283.52,-105.1 283.52,-105.1 283.52,-108.2 280.42,-111.3 277.32,-111.3"/>
<text text-anchor="middle" x="249.52" y="-99.3" font-family="Helvetica,sans-Serif" font-size="9.00">split&#45;object.js</text>
</a>
</g>
</g>
<!-- src/split&#45;object/split&#45;object&#45;deepa/split&#45;object.spec.js -->
<g id="node20" class="node">
<title>src/split&#45;object/split&#45;object&#45;deepa/split&#45;object.spec.js</title>
<g id="a_node20"><a xlink:href="../src/split-object/split-object-deepa/split-object.spec.js" xlink:title="split&#45;object.spec.js">
<path fill="#ffffcc" stroke="black" d="M142.07,-111.3C142.07,-111.3 65.45,-111.3 65.45,-111.3 62.35,-111.3 59.25,-108.2 59.25,-105.1 59.25,-105.1 59.25,-98.9 59.25,-98.9 59.25,-95.8 62.35,-92.7 65.45,-92.7 65.45,-92.7 142.07,-92.7 142.07,-92.7 145.17,-92.7 148.27,-95.8 148.27,-98.9 148.27,-98.9 148.27,-105.1 148.27,-105.1 148.27,-108.2 145.17,-111.3 142.07,-111.3"/>
<text text-anchor="middle" x="103.76" y="-99.3" font-family="Helvetica,sans-Serif" font-size="9.00">split&#45;object.spec.js</text>
</a>
</g>
</g>
<!-- src/split&#45;object/split&#45;object&#45;deepa/split&#45;object.spec.js&#45;&gt;src/split&#45;object/split&#45;object&#45;deepa/split&#45;object.js -->
<g id="edge10" class="edge">
<title>src/split&#45;object/split&#45;object&#45;deepa/split&#45;object.spec.js&#45;&gt;src/split&#45;object/split&#45;object&#45;deepa/split&#45;object.js</title>
<path fill="none" stroke="#000000" stroke-width="2" stroke-opacity="0.200000" d="M148.28,-102C167.59,-102 190.14,-102 208.96,-102"/>
<polygon fill="#000000" fill-opacity="0.200000" stroke="#000000" stroke-width="2" stroke-opacity="0.200000" points="209.19,-104.1 215.19,-102 209.19,-99.9 209.19,-104.1"/>
</g>
<!-- src/split&#45;object/template&#45;solution/splitObject.js -->
<g id="node21" class="node">
<title>src/split&#45;object/template&#45;solution/splitObject.js</title>
<g id="a_node21"><a xlink:href="../src/split-object/template-solution/splitObject.js" xlink:title="splitObject.js">
<path fill="#ffffcc" stroke="black" d="M276.82,-50.3C276.82,-50.3 222.22,-50.3 222.22,-50.3 219.12,-50.3 216.02,-47.2 216.02,-44.1 216.02,-44.1 216.02,-37.9 216.02,-37.9 216.02,-34.8 219.12,-31.7 222.22,-31.7 222.22,-31.7 276.82,-31.7 276.82,-31.7 279.92,-31.7 283.02,-34.8 283.02,-37.9 283.02,-37.9 283.02,-44.1 283.02,-44.1 283.02,-47.2 279.92,-50.3 276.82,-50.3"/>
<text text-anchor="middle" x="249.52" y="-38.3" font-family="Helvetica,sans-Serif" font-size="9.00">splitObject.js</text>
</a>
</g>
</g>
<!-- src/split&#45;object/template&#45;solution/splitObject.spec.js -->
<g id="node22" class="node">
<title>src/split&#45;object/template&#45;solution/splitObject.spec.js</title>
<g id="a_node22"><a xlink:href="../src/split-object/template-solution/splitObject.spec.js" xlink:title="splitObject.spec.js">
<path fill="#ffffcc" stroke="black" d="M141.57,-50.3C141.57,-50.3 65.95,-50.3 65.95,-50.3 62.85,-50.3 59.75,-47.2 59.75,-44.1 59.75,-44.1 59.75,-37.9 59.75,-37.9 59.75,-34.8 62.85,-31.7 65.95,-31.7 65.95,-31.7 141.57,-31.7 141.57,-31.7 144.67,-31.7 147.77,-34.8 147.77,-37.9 147.77,-37.9 147.77,-44.1 147.77,-44.1 147.77,-47.2 144.67,-50.3 141.57,-50.3"/>
<text text-anchor="middle" x="103.76" y="-38.3" font-family="Helvetica,sans-Serif" font-size="9.00">splitObject.spec.js</text>
</a>
</g>
</g>
<!-- src/split&#45;object/template&#45;solution/splitObject.spec.js&#45;&gt;src/split&#45;object/template&#45;solution/splitObject.js -->
<g id="edge11" class="edge">
<title>src/split&#45;object/template&#45;solution/splitObject.spec.js&#45;&gt;src/split&#45;object/template&#45;solution/splitObject.js</title>
<path fill="none" stroke="#000000" stroke-width="2" stroke-opacity="0.200000" d="M147.89,-41C167.51,-41 190.54,-41 209.62,-41"/>
<polygon fill="#000000" fill-opacity="0.200000" stroke="#000000" stroke-width="2" stroke-opacity="0.200000" points="209.93,-43.1 215.93,-41 209.93,-38.9 209.93,-43.1"/>
</g>
</g>
</svg>
